<?xml version="1.0" encoding="utf-8"?>
<!-- Generator: Adobe Illustrator 22.0.1, SVG Export Plug-In . SVG Version: 6.00 Build 0)  -->
<svg version="1.1" id="Layer_1" xmlns="http://www.w3.org/2000/svg" xmlns:xlink="http://www.w3.org/1999/xlink" x="0px" y="0px"
	 viewBox="0 0 1519.5 1328.5" style="enable-background:new 0 0 1519.5 1328.5;" xml:space="preserve">
<style type="text/css">
	.st0{fill:#3F3F3F;}
	.st1{fill:#4B79D1;}
	.st2{fill:#4B7AD1;}
	.st3{fill:#FEFEFE;}
	.st4{fill:#FD0000;}
	.st5{fill:#192845;}
	.st6{fill:#3C63AB;}
	.st7{fill:#0A111D;}
	.st8{fill:#2B4679;}
	.st9{fill:#090F1B;}
	.st10{fill:#0F1829;}
	.st11{fill:#0C1423;}
	.st12{fill:#4774C8;}
	.st13{fill:#3C62AA;}
	.st14{fill:#2F4E86;}
	.st15{fill:#1D3052;}
	.st16{fill:#345593;}
	.st17{fill:#132036;}
	.st18{fill:#385DA0;}
	.st19{fill:#3D64AD;}
	.st20{fill:#3F68B3;}
	.st21{fill:#3D65AE;}
	.st22{fill:#2E4C83;}
	.st23{fill:#284475;}
	.st24{fill:#14223B;}
	.st25{fill:#1E3054;}
	.st26{fill:#3C62A9;}
	.st27{fill:#4A79D0;}
	.st28{fill:#1A2B4B;}
	.st29{fill:#080D16;}
</style>
<g>
	<g>
		
			<image style="overflow:visible;opacity:0.57;" width="1468" height="1314" xlink:href="1ACCB56F.png"  transform="matrix(1 0 0 1 30.9764 6.4764)">
		</image>
		<g>
			<path d="M1359.7,589.8c1.1,14,2.1,27.9,2,41.9c0,2.9,1.2,3.2,3.5,3.1c10.3-0.1,20.7,0,31,0c0.6-1.7-0.5-2.9-1-4.2
				c-1.8-4.8-3.8-9.6-5.7-14.4c-1.2-3-2.5-6.6,0.2-8.8c2.8-2.2,6.2-1,9.2,1.1c11.8,8.1,23.8,15.9,35.7,23.9c6.4,4.3,6.4,10.4,0,14.7
				c-12.2,8.2-24.4,16.3-36.5,24.5c-2.7,1.8-5.8,2.6-8.4,0.7c-2.6-2-1.7-5.3-0.7-7.9c2.4-6.4,5.1-12.6,7.9-19.5
				c-11.4,0-22.3,0-33.2,0c-2.9,0-1.9,2.2-1.9,3.6c-0.1,13.2-0.9,26.3-1.9,39.4c-2.1,27.4-6.1,54.4-11.9,81.2
				c-13.1,61.4-35.5,119.3-66.9,173.6c-45.9,79.4-106.7,145.1-182.3,197.2c-62.9,43.4-131.8,73.6-206.3,90.7
				c-54.4,12.5-109.6,17.4-165.4,14.6c-100.7-5-194.4-33-280.8-84.8c-96.6-57.9-171.4-136.8-224.6-236.1
				c-28.1-52.3-47.5-107.9-59-166.1c-6.8-34.4-10.7-69.3-11.1-104.4c0-3.2-0.8-4.2-4.1-4.1c-9.8,0.2-19.7,0.1-30.2,0.1
				c2.6,6.6,5,12.8,7.5,19c1.2,3,2.6,6.1-0.4,8.6s-5.8,0.7-8.5-1.1c-12-8.1-24.1-16-36.1-24.1c-7.1-4.8-7.1-9.8,0-14.6
				c12.1-8.2,24.3-16.2,36.5-24.4c2.6-1.8,5.4-3.1,8.1-0.8c2.6,2.2,1.8,5,0.7,7.8c-2.6,6.4-5.2,12.8-8,19.7c10.9,0,21.4-0.1,31.8,0
				c2.6,0,2.4-1.5,2.4-3.2c-0.1-10.5,0.1-21,1-31.5c0.5-6.1,0.6-12.3,1.2-18.4c0.4-3.7-0.4-5.4-4.4-4.8c-4.5,0.6-8.1-0.1-7.4-6.1
				c0.2-2-1.4-1.9-2.7-1.9c-3.7,0-7.3-0.1-11,0c-4.6,0.1-6.6-2.5-7-6.7c-0.1-0.7,0-1.3,0-2c0-44.2,0-88.4,0-132.5c0-6.8,2.2-9,9-9
				c19,0,38-0.1,57,0.1c3.4,0,4.9-1,6.1-4.1c36.6-92.6,92.6-171.6,167.9-236.7C434.9,119,519.3,75.6,614.1,52.6
				c53.7-13,108.1-18.7,163.2-16.7c117.5,4.4,225.2,39.2,322,106.1c101.6,70.1,175.2,163,220.9,277.8c3.7,9.2,7.2,18.5,10.1,28
				c1.2,3.9,3,4.8,6.7,4.6c6.1-0.2,12.3-0.4,18.3,1.3c12.5,3.5,20.3,11.8,24.7,23.7c8.9,10,12,22,13,35.1
				c1.5,20.4,0.4,40.8,0.8,61.2c0.1,6.9-1.1,8-8.2,8c-6.3,0-12.6,0-18.9,0C1358.8,581.7,1358.8,581.7,1359.7,589.8z"/>
		</g>
	</g>
	<path class="st0" d="M1359.7,589.8c-1.3-1.6-0.8-3.5-1-5.3c-0.4-3.1,1-4.1,4-4c8.2,0.1,16.3-0.1,24.5,0.1c4.1,0.1,5.6-1.5,5.5-5.6
		c-0.1-17.8,0.3-35.6-0.2-53.4c-0.4-14.8-1.4-29.7-11.7-41.9c-0.5-0.6-0.5-1.5-0.8-2.3c5.2,3.3,7.7,8.6,9.9,14
		c3.9,9.6,4.4,19.8,4.5,30c0.2,18.1,0.1,36.3,0,54.4c0,6.1-0.5,6.5-6.6,6.5c-6.8,0-13.7,0-20.5,0
		C1359.9,582.3,1359.9,582.3,1359.7,589.8z"/>
	<path class="st1" d="M755.9,1235.8c-132.4-1.2-253.2-40.8-359.6-122c-100.7-76.9-169.9-176.3-208-297.1
		c-10.5-33.3-17.7-67.5-21.9-102.2c-2.4-19.9-3.5-39.8-4.6-59.7c-0.2-3.7,0.4-5.2,4.7-5.2c20.2,0.2,40.3,0.1,60.5-0.1
		c3.7,0,4.7,0.9,4.8,4.6c2.5,95.8,28.9,184.6,79.9,265.7c55.9,88.8,131.9,155.1,227.2,199c42.2,19.4,86.4,32.5,132.2,40.2
		c36,6,72.2,8.3,108.5,6.5c100.4-4.8,192.6-35,275.4-92.4c90.8-63,155.6-146.5,194.5-250c13.4-35.6,22.4-72.3,27.6-110
		c2.9-21.1,4.8-42.3,4.8-63.7c0-3.1,0.8-3.9,3.9-3.9c20.5,0,41-0.2,61.5-0.5c3.9-0.1,4.7,1.2,4.6,4.9
		c-2.6,117.5-35.7,225.5-101.6,322.9c-67.2,99.4-156.6,172.1-267.5,218.3c-43.3,18.1-88.3,30.3-134.6,37.6
		C818,1233.5,787.6,1235.4,755.9,1235.8z"/>
	<path class="st1" d="M276.8,648.8c10.3,0,20.7,0.1,31-0.1c3-0.1,3.9,0.7,4,3.8c4.5,124.4,51.8,229.6,142.4,314.7
		c61.6,57.9,134.8,94.3,217.9,110.6c34.8,6.8,70,9.8,105.3,7.6c137-8.4,248.5-66.4,333.2-174.6c42.5-54.2,69.5-115.9,83-183.4
		c5.1-25.5,8.1-51.3,8.2-77.3c0-3.2,0.5-4.6,4.2-4.6c20.5,0.2,41,0.1,61.5,0c3.7,0,4.4,1.1,4.3,4.5
		c-3.7,126.7-46.6,238.1-130.7,332.9c-70,78.9-156.8,131.1-259,157.2c-28.6,7.3-57.6,11.7-87,13.9c-31.3,2.4-62.6,2-93.8-1.5
		c-108.9-12.3-204.8-54.6-286.7-127.5c-77.8-69-129.8-154.3-156.4-254.9c-6.8-25.6-11.3-51.6-13.8-77.9c-1.2-12.6-1.5-25.3-2.6-37.9
		c-0.3-3.6,0.6-5,4.5-4.9c10.2,0.3,20.3,0.1,30.5,0.1C276.8,649.3,276.8,649.1,276.8,648.8z"/>
	<path class="st1" d="M1259.1,483.7c-4.8-14.9-10.3-29.2-15.9-43.3c-5.6-13.9-12.5-27.4-19.6-40.8
		c-45.4-86.6-109.5-155.8-192.8-207.1C976.5,159,917.7,136.7,855,124.6c-40.8-7.9-81.9-10.7-123.2-8.6
		c-89.6,4.4-173.1,29.7-249.5,76.8c-87.5,53.9-153.8,127.3-198.6,219.8c-4,8.4-8.3,11.6-17.4,10.6c-9.2-0.9-18.7-0.2-28-0.2
		c-7.3,0-9,1.3-10.8,8.3c-3.3,13.2-6.6,26.3-11,39.6c-1.6-7-3.3-14-4.9-21c-1-4.4-1.3-9-7.8-8.7c-2.5,0.1-4.6-8.7-3.1-12.7
		c6.2-16.2,13-32,20.7-47.6c48.9-99.6,119.8-179.8,212.8-240.2C498.5,99,568.5,71,643.9,56.5C684.6,48.7,725.6,45,767,45.8
		c106.9,2.2,206.7,30.1,297.9,86.1c122.8,75.4,207.9,181.7,255.5,317.8c1.2,3.4,1.1,5.1-2.8,6.4c-3.7,1.2-6.8,3.8-10.2-0.6
		c-0.6-0.8-2.5-0.7-3.8-0.7c-12.2,0-24.3-0.1-36.5,0c-5.7,0-8,2.4-8,8.3C1259,470.1,1259.1,476.9,1259.1,483.7z"/>
	<path class="st1" d="M356.9,648.7c10.2,0,20.3,0.1,30.5-0.1c3.1,0,4.2,0.5,4.3,4c4.9,109.8,49.5,200.3,133.8,270.8
		c48.8,40.8,105.2,65.9,167.7,77.1c29.4,5.3,59.2,6.6,89,4.4c72.4-5.2,137.7-29.3,195.2-73.4c71.6-54.9,117.2-126.7,136.4-215
		c4.7-21.8,7.5-43.9,7.8-66.3c0-3.3,1.2-3.8,4.1-3.8c20.5-0.1,41-0.3,61.5-0.7c3.4-0.1,4.5,0.7,4.4,4.4
		c-4.4,123.3-51.2,227.5-141.5,311.3c-60.3,56-131.7,91.3-212.7,106.6c-28.4,5.4-57.1,8.1-85.9,7.6c-88.7-1.5-170.2-26.8-242.9-77.9
		C416.8,933.1,358,845.8,332.4,736.3c-6.4-27.5-9.3-55.4-10.7-83.5c-0.2-3.4,0.9-4.2,4.1-4.2C336.3,648.8,346.6,648.7,356.9,648.7
		L356.9,648.7z"/>
	<path class="st1" d="M305.7,440.6c-0.1-2.8-0.1-5.7-0.2-8.5c-0.2-6.4-2.4-8.6-8.8-9c-2-0.1-3.9,0-6.9,0c3-6.1,5.5-11.5,8.3-16.8
		C359.3,290.1,450.8,207.7,573,159.6c38.2-15,77.9-24.7,118.6-29.8c32.4-4.1,65.1-5.5,97.7-3.1c128.7,9.3,239.1,59.2,331,149.6
		c40.8,40.2,73.6,86.4,98.8,137.9c2.4,4.8,2.4,4.8-3.2,4.9c-8.5,0-17-0.1-25.5,0c-7.4,0.1-9.4,2.1-9.4,9.6s0,15,0,22.5
		c0,16.9,0,33.9,0,51.7c-2.5-3.1-2.9-6.2-3.9-9c-54.2-145.1-155.8-239.5-304.4-283c-28.1-8.2-57.1-12.5-86.4-14.3
		c-99.5-6.1-191,17.7-274.5,72.2c-57.2,37.3-103,85.8-137.9,144.4c-2.6,4.4-5.3,6.4-10.5,6c-7-0.5-14-0.2-21-0.1
		c-6.6,0.1-8.6,2.3-8.6,8.8c0,7.2,0,14.3,0,21.5c0.1,15.6-0.1,31.2,0,46.8c0.1,8.2-3.7,15.4-5.7,23.1c-4.2,15.9-8.1,31.8-10.7,48.1
		c-3.1-1.2-1.8-3.9-1.8-5.9c-0.1-36.6-0.1-73.1-0.1-109.7c0-1.3,0-2.7,0-4c-0.1-4.9-0.9-5.8-5.7-6.2
		C308.5,441.6,306.9,441.8,305.7,440.6z"/>
	<path class="st1" d="M756.5,995.8c-159.4-0.9-292.6-104.4-338.3-248.3c-9.2-29-14.6-58.7-15.7-89.1c-0.4-9.8-0.4-9.7,9.2-9.8
		c18.5-0.1,37-0.2,55.5-0.5c3.3-0.1,4.5,0.6,4.7,4.3c2.8,63.6,24.1,120.3,64.6,169.4c44.3,53.7,100.9,88.1,169.4,99.4
		c105.8,17.3,195.7-14.6,267.3-94.8c34.3-38.5,55-84.2,64.4-134.8c2.5-13.4,4.1-27,4.2-40.6c0-3.1,0.6-4.3,4.1-4.3
		c20.7,0.1,41.3,0,62-0.1c3,0,4,0.7,3.9,3.9c-1.5,35.6-6.6,70.6-18.9,104.1c-44.7,122.1-130.3,199.5-256.2,232
		C810.4,993.3,783.5,995.3,756.5,995.8z"/>
	<path class="st1" d="M1154,466.7c-8-14.5-25.8-17.5-42.3-13.1c-4.3,1.2-8.1,2.7-13.1,1.7c-6.2-1.3-13-0.8-19.4-0.2
		c-6,0.6-8.9-1.9-12.1-6.8c-56.5-88.5-136-144-238.9-165.7c-30-6.3-60.4-8.4-90.9-6.6c-80.8,4.7-152.6,32.7-214.9,84.6
		c-20.2,16.8-38.2,35.7-54.3,56.4c-1.6,2.1-3,2.5-5.7,2.4c-12.2-0.4-24.3-0.4-36.5-0.1c-5.8,0.1-7.9,2.8-7.9,8.6
		c0,7.8-0.1,15.7,0,23.5c0.1,2.8-0.9,3.6-3.7,3.7c-10.2,0.2-11.2,1.4-11.2,11.7c0,6.7-0.1,13.3,0,20c0.1,7.6,2.4,10.1,9.8,9.9
		c4.3-0.1,5.8,1.3,5,5.3c-0.2,1.1-0.1,2.4-0.5,3.4c-8.7,21.3-14.5,43.5-19.6,65.8c-0.2,0.8-0.4,1.6-1.1,2.3c0-6.7,0-13.3,0-20
		c0-24.7,0-49.3,0-74c0-6-0.6-6.6-6.5-6.7c-2.5,0-4.5,0.1-4.5-3.5c0-3.5,1.8-3.6,4.4-3.6c6,0,6.6-0.7,6.6-6.6c0-5.3-0.2-10.7,0.1-16
		c0.2-4.1-1.5-6.1-5.6-5.5c-4.5,0.6-5.8-1.1-5.6-5.5c0.1-4.1,1.4-8.6-2.6-12.2c-1.3-1.1,0.9-3,1.7-4.3c20.5-33.9,45-64.4,73.9-91.4
		c61.6-57.5,133.7-94.7,216.6-110.7c28.9-5.6,58-8.2,87.3-7.7c171.6,2.5,321.6,104,390.6,255.8c0.8,1.7,1.4,3.4,2,5.1
		C1154.7,467.1,1154.3,467.1,1154,466.7z"/>
	<path class="st1" d="M517,647.7c10.3,0,20.7,0.1,31-0.1c2.6,0,3.7,0.5,3.8,3.5c5,94.4,72.1,172.1,164.7,190.8
		c111.1,22.4,219.5-49.9,241.4-161c2-10,3.4-20,3.7-30.2c0.1-2.7,0.8-3.8,3.7-3.8c21,0,42-0.1,63-0.2c2.7,0,3.3,0.9,3.2,3.5
		c-4.8,119.8-84.7,222.1-199.4,254.9c-33.8,9.7-68.2,12.4-103.3,9c-113.2-10.8-212.5-94.4-240-211c-4-16.9-5.9-34.1-7-51.3
		c-0.2-3.5,1.4-3.8,4.1-3.8c10.3,0.1,20.7,0,31,0C517,647.9,517,647.8,517,647.7z"/>
	<path class="st2" d="M483.8,472.4c0-3.7-0.1-7.3-0.2-11c0-1.2,0.2-2.8-0.4-3.4c-4.3-4.3-2.5-9.7-2.8-14.6c-0.2-3.7-1.4-6-5.6-5.9
		c-1.6,0.1-4,1.1-4.8-1.2c-0.9-2.3-0.2-4.5,1.3-6.5c7.2-9.6,14.8-18.9,22.9-27.8c52.3-56.7,116-93.3,191.6-109.1
		c32.4-6.8,65.3-9.3,98.3-6.1c117,11.2,207.8,66.3,272.6,164.3c1.4,2.1,2.4,3.7-0.8,5.3c-1.9,0.9-1.9,3.3-1.9,5.4
		c0,35.2,0,70.3,0,105.5c0,4.6,2.1,6.7,6.7,6.5c2.2-0.1,4.3,0,6.5,0c3.8-0.1,7.4-0.6,6.8,5.3c-0.3,3.2,2.6,3.7,5.4,3.7
		c7.7,0,15.3,0.2,23-0.1c3.4-0.1,4.8,1.2,5.3,4.3c2.2,15.2,3.1,30.4,4.1,45.7c0.2,3.5-1.9,3.2-4.1,3.2c-16.3,0-32.7,0.1-49,0.2
		c-4.5,0-9,0.1-13.5,0.3c-2.6,0.1-3.4-0.8-3.4-3.4c-0.1-15.3-1.8-30.5-4.9-45.6c-0.9-4.3,1.1-8.1,1.1-12.3c-0.1-43-0.1-86-0.1-129
		c0-7.2,0-7.4-7.1-7.4c-3.1,0-4.2-1.1-4-4.1c0.1-2,0-4,0-6c0-6.2-2-8.4-8.3-8.5c-11.3-0.2-22.7-0.1-34,0c-6.8,0.1-9.2,2.6-9.3,9.6
		c-0.1,8.7,0,17.3,0,27.1c-54.3-61.7-121.5-96.4-202.7-100.8c-81.3-4.4-152,22.4-212,77.3c-0.3-0.4-0.7-0.6-0.7-0.8
		c0.4-12.6-2.3-13.6-13.9-13.5c-9.3,0.1-18.7,0-28,0c-7.9,0.1-10,2.2-10,10.1c0,6.3,0,12.7,0,19c0,7.9,0.7,6.7-6.5,6.7
		c-4.2,0-7.3,1-7.7,5.8c-1,2.2-0.4,4.6-0.5,6.9C493.1,474.4,490.1,476,483.8,472.4z"/>
	<path class="st1" d="M597,647.6c10.3,0,20.7,0.1,31,0c2.6,0,3.6,0.5,3.9,3.5c5.4,58.5,47.4,104.2,105.7,113.4
		c66.3,10.4,126.7-32.5,141.1-95.7c1.3-5.8,2.2-11.8,2.9-17.7c0.3-2.5,0.9-3.4,3.5-3.4c20.8-0.1,41.7-0.2,62.5-0.5
		c3.3,0,3.7,1.1,3.6,4.1c-2.9,52.8-24.3,97-62.7,132.9c-29.1,27.2-63.9,43.8-103.3,49.5c-80.5,11.7-159.4-26.8-199.4-99.5
		c-14.3-25.9-22.1-53.7-23.6-83.2c-0.2-3.1,1.1-3.2,3.4-3.2c10.5,0,21,0,31.5,0C597,647.7,597,647.6,597,647.6z"/>
	<path class="st2" d="M573.9,470.7c-0.1-3-0.1-6-0.2-9c0-1.2,0.3-2.9-0.3-3.4c-5.6-4.8-1.9-11.3-3.2-16.8c-0.5-2.3,1.2-3.7,2.7-5
		c36.8-32.7,79.2-54.6,127.5-64.8c26.4-5.5,53.1-7.3,79.9-4.9c56.4,5.2,106.7,25.6,150.6,61.4c7.5,6.1,14.6,12.6,21.4,19.5
		c1,1,2,2.2,4,4.3c-29.9-2.5-50.2,9.2-60.4,37.3c-6.3-5-12.3-9.8-18.4-14.6c-7-5.4-14.9-9.5-21.4-15.5c-2.1-2-5-3.4-7.8-4.3
		c-18.9-5.5-37.1-13.4-56.8-16.5c-39.1-6.2-76.9-2.3-113.5,12.7c-2.2,0.9-4.2,1.2-6.6,1.1c-14.3-0.5-28.5-1.2-42.5,3.4
		c-23.5,7.7-37.7,25.3-40.1,50.1c-0.5,5.3-1.2,10.6-0.4,15.9c0.2,1.3-0.5,2.2-1.1,3.2c-3.7,5.8-7.3,11.5-11.2,17.6
		c-1.1-2.7-1.4-5.7-3.4-7.7c-1.4-1.4-1.4-3.3-1.5-5.1c-0.1-5.6,0-11.3,0-16.9c0-4,1.6-6.1,5.8-6.4c8-0.6,8.2-1,8.3-9
		c0-6.1,0-12.3,0-18.4c0-6.3-0.2-6.4-6.3-6.7C577.2,472,575.3,472.2,573.9,470.7z"/>
	<path class="st3" d="M168.8,464.3c0,33.2-0.1,65.9,0.1,98.7c0,4.7-1,6.1-5.9,5.9c-10.5-0.4-21-0.3-31.5-0.1
		c-3.3,0.1-4.5-0.6-4.5-4.2c0.1-43.7,0.1-87.3,0-131c0-3.4,1-4.1,4.2-4.1c19.5,0.1,39,0.2,58.5,0c3.4,0,4.4,1.1,5.1,4.3
		c5.9,26.1,12,52.2,18.3,79.6c2.7-10.6,5.1-20,7.4-29.3c4.2-16.8,8.3-33.6,12.4-50.4c0.7-2.9,1.6-4.4,5.1-4.3
		c19.3,0.2,38.7,0.2,58,0c3.2,0,3.8,1,3.8,3.9c-0.1,43.8-0.1,87.7,0,131.5c0,3.6-1.4,3.9-4.3,3.9c-11-0.1-22-0.3-33,0.1
		c-4,0.1-4.6-1.2-4.6-4.7c0.1-31,0.1-62,0.1-93c0-1.8,0-3.6,0-5.4c-0.3-0.1-0.7-0.1-1-0.2c-1.8,7-3.6,14-5.4,21
		c-6.6,26.1-13.3,52.2-19.7,78.3c-0.9,3.5-2.3,4-5.4,4c-8.8-0.2-17.7-0.3-26.5,0.1c-3.8,0.2-4.7-1.4-5.4-4.5
		c-7.9-31.8-15.9-63.5-23.8-95.3C170.4,467.5,170.3,465.8,168.8,464.3z"/>
	<path class="st2" d="M677.2,646.8c10.2,0,20.3,0.1,30.5-0.1c3-0.1,4.3,0.7,5.1,3.8c4.8,20.7,22.2,35,42.3,35.2
		c22.8,0.2,40.1-12.9,45.5-34.9c0.6-2.6,1.7-3.1,4-3.1c21,0,42,0.1,63-0.1c3.1,0,3.5,1.2,3.3,3.9c-1.7,20-8.4,38.3-20,54.6
		c-19.4,27.4-45.8,43.9-79,48.4c-59.4,8.1-114.3-31-127.3-88.6c-1.1-4.7-1.8-9.4-2.3-14.3c-0.3-3.3,0.3-4.3,3.8-4.3
		c10.3,0.2,20.7,0.1,31,0.1C677.2,647.3,677.2,647.1,677.2,646.8z"/>
	<path class="st3" d="M981.6,468.6c0-13.4,0.1-25.9-0.1-38.4c-0.1-3.2,0.9-3.9,3.9-3.8c10.8,0.2,21.7,0.2,32.5,0
		c2.9,0,4,0.5,3.9,3.7c-0.1,45-0.1,90,0,134.9c0,3.3-1.2,3.7-4,3.7c-9.7-0.2-19.3-0.4-29,0.1c-4.9,0.2-6.1-1.6-5.7-5.8
		c0.1-1,0-2,0-2.7c-1.4-0.9-1.8,0.1-2.3,0.6c-15.5,12.8-33.1,15.4-51.5,8.6c-18.1-6.7-26.7-21.6-29.8-39.9
		c-2-12.1-1.9-24.3,1.5-36.1c9.6-33.1,46-46.6,75.3-28C978,466.4,979.5,467.3,981.6,468.6z"/>
	<path class="st3" d="M680.8,524.9c-13,0-26,0.2-39-0.1c-4.4-0.1-4.5,1.7-4,5c2,11.9,13.6,19,27.1,16.6c5.9-1.1,10.7-3.7,13.4-9.2
		c0.9-1.7,1.8-2.4,3.8-2.4c12.7,0.1,25.3,0.2,38,0c4-0.1,2.8,2,2.1,4c-4.2,12.6-12.4,21.8-24.5,26.8c-22.8,9.4-46.4,10.4-69.7,2.3
		c-20.2-7-30.7-22.4-33.2-43.3c-1.2-10-0.8-20,2.2-29.6c5.5-17.8,17.9-28.9,35.5-33.9c16.5-4.6,33.2-4.7,49.8-0.4
		c23.4,6,36,21.8,40.3,45c1,5.3,1.2,10.6,1.3,15.9c0.1,3-1,3.5-3.7,3.5C707.1,524.8,694,524.9,680.8,524.9z"/>
	<path class="st1" d="M725.8,544.7c0.4-1,0.7-2,1.1-3c2.4-1.9,5.3-1.3,8.1-1.5c4.4-0.3,6-1.9,6.3-6.4c0.2-2.4-0.4-5,1.5-7.1
		c4.3-1.3,5.4,0.5,5.3,4.7c-0.3,11.2-0.1,22.3-0.1,33.5c0,6.6,2.1,8.7,8.6,8.7c1.7,0,3.3,0.1,5,0c4.1-0.4,7.1,0.1,6.9,5.4
		c-0.1,2.6,1.8,3.7,4.4,3.6c11,0,22,0,33,0c4.1,0,4.8-2.6,4.8-6c-0.1-12,0-24,0-36c7.5,1,10.5,4.3,10.5,11.3c0,4.7-0.2,9.3,0.1,14
		c0.3,5.8,2.4,7.6,8.1,7.7c2.2,0,4.3,0.1,6.5,0c3.7-0.3,6.6,0.1,6,5.1c-0.4,3,1.9,4.4,4.5,3.8c8.6-1.7,11.9,3.3,14.9,10.1
		c5.7,13.1,9.2,26.6,10.2,40.9c0.2,3-0.8,3.3-3.3,3.3c-21,0.2-42,0.4-63,0.7c-2.5,0-3.2-0.7-3.6-3.2c-3.8-20.1-15.3-33.3-35.5-37.9
		c-23.8-5.4-48.1,9.9-53,33.8c-1.1,5.4-3.1,6.6-8.3,6.5c-19.5-0.3-39-0.2-58.5,0c-3.4,0-4.5-0.5-4.1-4.4
		c1.5-15.8,5.2-30.8,12.9-44.7c1.7-1.5,3.6-1.2,5.7-1c16.7,1.6,33.2,0.8,49.1-5.3c3.1-1.2,6-2.8,9-4.3c0.4-0.3,0.8-0.5,1.2-0.8
		c1.6-0.8,3.1-1.8,4.2-3.3c0.4-0.5,1-0.9,1.6-1.2c2.3-1,3.9-2.8,5.2-4.8c0.2-0.4,0.5-0.7,0.8-1.1c1.6-1.6,2.8-3.5,3.1-5.8
		c0.4-1.7,1.2-3.1,2.3-4.4c1-1.2,1.5-2.5,1.9-4c1-3.7,0.1-5.1-3.8-5.6c-2.9-0.4-5.9,0.5-8.8-0.8
		C726.1,545.1,725.9,544.9,725.8,544.7z"/>
	<path class="st3" d="M794.6,470.5c8.4-6.5,16.8-11,26.5-12.3c7.2-1,14.3-1,21.3,0.8c14,3.7,20.4,13.9,23.3,27.1
		c1.4,6.7,2,13.5,2,20.3c0,19.3-0.1,38.7,0.1,58c0,3.6-1.1,4.3-4.4,4.3c-10.5-0.2-21-0.2-31.5,0c-3.4,0.1-4.5-0.7-4.4-4.3
		c0.1-17.5-0.1-35-0.2-52.5c0-0.5,0-1-0.1-1.5c-1.2-12.1-5.1-16.1-15.4-15.7c-10.1,0.4-17,7.5-17.1,17.8c-0.1,13.7,0.1,27.3-0.1,41
		c0,4.9,2.2,11.5-1,14.3c-2.7,2.4-9.2,0.7-14,0.8c-7.3,0-14.7-0.1-22,0.1c-2.6,0.1-3.4-0.7-3.4-3.3c0.1-33.8,0.1-67.7,0-101.5
		c0-2.7,0.9-3.3,3.4-3.3c10.7,0.1,21.3,0.3,32-0.1c4.3-0.1,5.7,1.2,5,5.2C794.4,467.1,794.6,468.4,794.6,470.5z"/>
	<path class="st3" d="M1305.7,470.6c8.4-6.5,16.6-10.9,26.2-12.3c7.2-1,14.3-1.1,21.3,0.7c14.2,3.6,20.8,13.9,23.6,27.4
		c1.4,6.5,2,13.2,2,19.8c0,19.5-0.1,39,0.1,58.5c0,3.3-0.8,4.2-4.1,4.1c-10.7-0.2-21.3-0.3-32,0c-3.7,0.1-4.3-1.1-4.3-4.5
		c0.1-17.5-0.1-35-0.3-52.5c0-0.5-0.1-1-0.1-1.5c-1.2-11.9-5-15.8-15.1-15.5s-17.3,7.2-17.4,17.4c-0.2,16.2,0,32.3-0.1,48.5
		c0,7.9,0,7.9-7.7,7.9c-9.5,0-19-0.1-28.5,0.1c-3.1,0.1-4.3-0.6-4.3-4c0.1-33.3,0.1-66.7,0-100c0-3.2,0.8-4.2,4.1-4.1
		c10.2,0.2,20.3,0.4,30.5,0c4.8-0.2,6.7,1.1,5.8,5.9C1305.6,467.5,1305.7,468.5,1305.7,470.6z"/>
	<path class="st2" d="M1170.9,511c5.6,15.5,11.5,30.9,10.3,47.8c-0.2,3,0,6,0,9c0,1.4-0.1,3.1,1,3.7c7.9,4.5,5.5,12.6,6.6,19.2
		c2.2,13.1,2,26.5,3,39.8c0.3,3.9-0.3,5.5-4.8,5.4c-20.3-0.2-40.6-0.1-60.9-0.1c-1.8,0-4.2,0.8-4.1-2.6c0.4-19.4-3.8-38.4-4.7-57.6
		c-0.9-19.1-0.2-38.3-0.3-57.4c0-4.3,1.7-6.1,6-5.5c1.6,0.2,3.3,0.1,5,0c3.3-0.3,5.4,0.4,5.3,4.4c0,3.5,2.3,4.7,5.7,4.6
		c8.3-0.1,16.6,0,25,0c6.5,0,7-0.5,7-7.2C1170.9,513.3,1170.9,512.2,1170.9,511z"/>
	<path class="st3" d="M513.9,518.9c0-8.2-0.1-16.3,0.1-24.5c0.1-2.9-0.8-3.7-3.7-3.6c-3.4,0.1-8,1.6-10-0.6c-2.2-2.4-0.6-7-0.7-10.6
		c-0.1-5.2,0.1-10.3-0.1-15.5c-0.1-2.5,0.5-3.5,3.2-3.4c3.6,0.1,8.7,1.7,10.5-0.7c1.9-2.5,0.7-7.3,0.7-11.1c0-6.7,0.1-13.3,0-20
		c-0.1-2.7,0.8-3.4,3.4-3.4c11.2,0.1,22.3,0.2,33.5,0c3,0,3.6,1,3.6,3.7c-0.1,9.3,0.1,18.7-0.1,28c-0.1,2.9,0.8,3.7,3.6,3.6
		c3.5-0.2,8.1-1.2,10.1,0.5c2.4,2.1,0.7,6.9,0.8,10.5c0.2,5.2-0.1,10.3,0.1,15.5c0.1,2.7-0.5,3.7-3.5,3.7
		c-11.1,0.1-11.2,0.2-11.1,11.6c0.1,8.8,0.1,17.7,0.6,26.5c0.4,8.4,2.7,10.6,11,10.6c3.2,0,4.2,0.8,4.1,4.1
		c-0.3,7.8-0.1,15.7,0,23.5c0,2.2-0.2,3.7-2.9,4.1c-10.9,1.7-21.9,2.5-32.7-0.2c-14.9-3.6-20.1-11.3-20.4-29.2
		C513.8,534.3,513.9,526.6,513.9,518.9z"/>
	<path class="st3" d="M423.8,518.9c0-8.2-0.1-16.3,0.1-24.5c0.1-2.9-0.9-3.6-3.7-3.6c-3.4,0-7.9,1.6-10.1-0.7
		c-2.1-2.2-0.5-6.7-0.6-10.1c-0.1-5.3,0.1-10.7-0.1-16c-0.1-2.5,0.5-3.5,3.3-3.4c3.6,0.1,8.5,1.7,10.5-0.7c1.8-2.2,0.6-7,0.6-10.6
		c0-6.7,0.2-13.3-0.1-20c-0.1-3.2,1-3.9,4-3.8c10.8,0.2,21.7,0.2,32.5,0c3.6-0.1,4.1,1.2,4,4.3c-0.2,9.2,0.1,18.3-0.1,27.5
		c-0.1,2.9,0.9,3.7,3.6,3.5c3.5-0.2,8.1-1.2,10.1,0.6c2.4,2.1,0.7,6.9,0.8,10.5c0.1,5.2-0.1,10.3,0.1,15.5c0.1,2.7-0.6,3.6-3.5,3.7
		c-11.1,0.1-11.1,0.2-11,11.6c0.1,8.8,0.1,17.7,0.6,26.5c0.4,8.4,2.7,10.6,11.1,10.6c3.3,0,4.2,0.9,4.1,4.1
		c-0.2,7.8-0.1,15.7,0,23.5c0,2.3-0.3,3.7-2.9,4.1c-10.9,1.7-21.9,2.5-32.7-0.2c-14.8-3.6-20-11-20.4-28.8
		C423.7,534.6,423.8,526.7,423.8,518.9z"/>
	<path class="st3" d="M1100.5,467.5c8.3-8.7,18.6-10.8,29.8-9.6c12.9,1.4,20.8,9.9,23.4,24.7c1.3,7.4,1.1,14.9,1.2,22.4
		c0,2.3-0.8,2.7-2.9,2.7c-9.8-0.1-19.7-0.2-29.5,0c-2.8,0.1-3.4-1.2-3.5-3.5c0-2.9-0.4-5.7-1.6-8.3c-1.5-3.3-4-5.2-7.8-5.2
		c-3.8,0.1-6.1,2.2-7.3,5.7c-1.6,4.8-1.7,9.8-1.7,14.8c0,17.7-0.1,35.3,0.1,53c0,3.4-0.7,4.6-4.3,4.5c-10.8-0.3-21.7-0.2-32.5,0
		c-3,0-4.2-0.4-4.2-3.9c0.2-33.5,0.1-67,0-100.5c0-3.3,1-3.8,3.9-3.7c9.7,0.2,19.3,0.1,29,0.1
		C1099.3,460.7,1099.3,460.7,1100.5,467.5z"/>
	<path class="st1" d="M879.5,490c5.3,3.7,8.9,7.1,12.4,10.6c1.9,1.9,1.2,4.4,1,6.7c-1.9,19.4,1.7,37.3,13.9,53
		c4.4,5.6,10,9.7,16.4,12.7c5.3,2.5,10.4,5.2,15.4,8c3.5,1.9,5.1,4.4,6,7.9c4,14.7,6,29.6,6.9,44.8c0.1,2.4-0.5,3.2-2.9,3.2
		c-21.3,0-42.7,0-64,0.1c-2.2,0-2.8-0.8-2.9-2.9c-0.8-16.5-4.8-32.2-11.9-47c-1.5-3.2-1.1-4.5,2.8-4.3c12.8,0.5,11.1-0.4,11.2-11.5
		c0-3.3,0.1-6.7,0-10C882.9,537.8,886.4,514.3,879.5,490z"/>
	<path class="st1" d="M1243.8,475.8c6.2,13.3,9,27.7,13.1,41.6c3.3,11.1,1.9,22.5,2.2,33.7c0.1,5,0,10,0,15c0.1,4.1,1.5,7.3,6.1,7.6
		c2.5,0.1,2.4,1.7,2.6,3.4c2.1,17.7,3,35.5,3.9,53.2c0.2,3.2-0.2,4.7-4.1,4.7c-20.5,0-41,0.3-61.4,0.7c-3.5,0.1-4.4-0.9-4.4-4.4
		c0-18.3-1.8-36.5-4.3-54.6c-0.2-1.2-1.3-2.7,1.1-2.9c1.7-0.1,2.4,0.9,2.3,2.5c-0.6,5.7,2.6,6.6,7.4,6.5c9.7-0.2,19.3,0,29-0.1
		c6,0,6.7-0.7,6.7-6.6C1243.9,542.7,1243.9,509.2,1243.8,475.8L1243.8,475.8z"/>
	<path class="st1" d="M584.7,549.7c2.1-3.8,4.1-7.6,6.6-12.1c3.4,8.9,7.5,16.5,14,22.7c3.7,3.5,7.6,6.5,12,8.9
		c8.2,4.3,16.5,8.6,24.9,12.5c2.8,1.3,2.8,2.6,1.7,5c-7.1,15.1-11.4,30.8-12,47.5c-0.1,3.3-2.1,2.8-4,2.8c-16.5,0.1-33,0.1-49.5,0.2
		c-4.5,0-9,0.2-13.5,0.3c-1.9,0.1-3.2-0.4-3-2.8c1.2-15.9,2.4-31.8,7.7-47c3.8-1.5,7.8-1,11.7-1.7c3.4-0.7,4.9-2.3,5-5.6
		c0.1-8,0-15.9,0-23.9C586.3,553.9,584.3,552.1,584.7,549.7z"/>
	<path class="st1" d="M557.9,588.8c-3.2,15.1-6.3,30.3-6.1,45.8c0,2.2-0.9,2.9-3,2.9c-21.5,0.1-43,0.1-64.4,0.3
		c-2.4,0-2.7-1.2-2.6-3.1c0.9-15.3,1.9-30.5,4.9-45.5c0.5-2.3,1.7-3.4,4-3.7c4.2-0.4,5.6-2.9,5.2-6.9c-0.2-2.3,0.2-4.7-0.1-7
		c-2-16.5,4.1-31,11.2-45.3c1.7,0.7,0.8,2.3,0.9,3.3c0.4,7.5-0.3,14.9,0.9,22.4c1.9,10.9,7.3,18.7,17.8,22.6c2,0.7,4,1.5,6,2.3
		c6.2,5.9,13.8,8.7,22.1,9.9C556.1,586.9,558,586.5,557.9,588.8z"/>
	<path class="st1" d="M1279,579.9c1.2,2.9,3.6,2.8,6,2.8c10.3,0,20.7-0.1,31,0c4.4,0.1,5.9-1.9,5.8-6.1c-0.1-16.7,0-33.3-0.1-50
		c0-5.3,1.4-9.9,5.3-13.5c1.2-1.1,2.5-2.8,4.2-2c1.5,0.7,1,2.7,1,4.1c0.1,15.3,0.1,30.7,0.1,46c0,1.5-0.1,3,0,4.5
		c0.4,6,2.4,7.9,8.4,7.9c7.4,0,7.5,0,8.1,7.3c1.5,16.4,2.1,32.9,2.9,49.4c0.2,3.5-0.8,4.5-4.3,4.5c-20.3-0.1-40.7,0-61,0.1
		c-2.6,0-4.7,0.3-4.6-3.7c0.3-15.5-1.1-30.9-2.7-46.3C1278.8,583.3,1279,581.6,1279,579.9z"/>
	<path class="st3" d="M1186.9,514.7c0-16.7,0.1-33.3-0.1-50c0-3.3,0.8-4.2,4.1-4.1c11.2,0.2,22.3,0.2,33.5,0c2.8,0,3.6,0.8,3.6,3.6
		c-0.1,33.7-0.1,67.3,0,101c0,2.8-0.7,3.6-3.6,3.6c-11.3-0.2-22.7-0.2-34,0c-2.8,0-3.6-0.8-3.6-3.6
		C1186.9,548.4,1186.9,531.5,1186.9,514.7z"/>
	<path class="st3" d="M339.7,514.7c0-16.7,0.1-33.3-0.1-50c0-3.3,0.8-4.2,4.1-4.1c11.2,0.2,22.3,0.2,33.5,0c2.8,0,3.6,0.7,3.6,3.6
		c-0.1,33.7-0.1,67.3,0,101c0,2.8-0.7,3.6-3.6,3.6c-11.3-0.2-22.7-0.2-34,0c-2.8,0-3.6-0.7-3.6-3.6
		C339.7,548.4,339.7,531.6,339.7,514.7z"/>
	<path class="st2" d="M475.9,590.7c-2.5,14.4-4.3,28.9-4.1,43.6c0,2.5-0.6,3.5-3.3,3.5c-21.2-0.1-42.3,0-63.5,0.1
		c-2.7,0-3.3-1-3.3-3.5c1.1-32.8,5.6-65.1,15.7-97.7c0.9,5.8,0.6,10.4,1.4,15.1c1.9,11.4,7.6,19.3,18.7,23c2,0.7,4.1,1.4,6.1,2.1
		c8.3,6.2,17.6,9,27.9,9.1C473.9,586,477.1,586.6,475.9,590.7z"/>
	<path class="st1" d="M333.9,542.7c0,8,0,16,0,23.9c0,5.6,1.5,7,7.1,7.1c1.8,0,3.7,0,5.5,0c4-0.1,8.1-0.9,7.5,5.7
		c-0.3,3.1,3.1,3.3,5.7,3.3c11,0,22,0.1,33-0.1c2.4,0,3.4,0.3,3.1,2.8c-2.4,16.6-4.3,33.3-4,50.1c0,2.1-1.1,2.4-2.8,2.4
		c-21.5,0.2-42.9,0.4-64.4,0.7c-3.4,0.1-2.8-2-2.7-3.9c0.6-12.1,0.9-24.3,2.1-36.4c1.7-18.3,4.6-36.6,8.8-54.5
		c0.1-0.4,0.3-0.9,0.4-1.3C333.4,542.7,333.6,542.7,333.9,542.7z"/>
	<path class="st1" d="M314.8,585.8c-1.8,16.5-3.5,33.1-3.1,49.8c0.1,2.8-1,3.3-3.5,3.3c-21-0.1-42-0.1-63,0.1
		c-2.8,0-3.7-0.8-3.6-3.6c0.6-16.6,0.8-33.3,3.4-49.8c1-6.6,4.4-13,6-20.1c2.1,7.5,3.2,8.4,10.4,8.4c3.3,0,6.7,0.1,10,0.2
		c0.7,0.5,1,1.3,1.1,2.1c1,6.2,1,6.2,7,6.2c10.6,0,21.2,0,31.8,0C313.8,582.2,316,582.4,314.8,585.8z"/>
	<path class="st1" d="M233.8,587c-0.7,16.3-2.8,32.5-2.1,48.8c0.2,3.5-1.9,3.1-4.1,3.1c-16.1,0-32.3,0.1-48.4,0.2
		c-4.5,0-9,0-13.5,0.3c-3.4,0.2-4.2-1.1-4.1-4.3c0.8-17.1,0.9-34.2,3.1-51.2c4-2.3,8.4-0.8,12.6-1c6.3-0.3,7.3-1,7.3-7.2
		c0-5.3-0.1-10.6,0.1-15.9c0-1.4-0.7-3.5,1.8-3.8c1.1,4.3,2.3,8.6,3.3,13c0.8,3.5,2.8,5,6.3,4.9c3.2-0.1,6.3,0.1,9.5,0.1
		c1.1,0.9,1.6,2.1,2,3.4c2.1,6.2,2.4,6.4,8.8,6.5c4.7,0,9.3-0.1,14,0C232.3,583.8,234.7,583.7,233.8,587z"/>
	<path class="st4" d="M756.7,605.7c18.8,0,35.3,16.5,35,35.2c-0.2,18.8-16.2,34.7-34.9,34.8s-35.2-16.4-35-35.2
		C721.9,621.9,738,605.8,756.7,605.7z"/>
	<path class="st2" d="M1025.6,584.8c3.1,11.8,4.2,23.8,5.2,35.9c0.2,2.3,0.1,4.7,0.3,7c0.7,8.9,0.7,8.9-8.5,8.9
		c-18.6,0.1-37.3,0-55.9,0.3c-3.7,0-5.1-0.6-5.1-4.8c-0.1-13.3-2.3-26.4-5.3-39.4c-0.3-1.3-0.4-2.6-0.6-3.9c1.7-1.8,4-1.4,6.1-1.4
		c10.2,0.4,19.8-1.7,28.5-7.2c2.4-1.5,4.8-1.6,6.6,0.8c1.5,2,3.5,2.3,5.7,2.3c5.8,0,11.6,0,17.4,0
		C1022,583.4,1024.1,583.2,1025.6,584.8z"/>
	<path class="st1" d="M810.5,454.4c-1.8,0.8-3.7,1.4-5.5,2.3c-2.8,1.5-5.4,3.2-7.9-0.7c-1.1-1.6-3.3-1.1-5.2-1.1
		c-11.8,0-23.7,0-35.5,0c-6.1,0-8.5,2.3-8.5,8.4c-0.1,16-0.3,32,0.1,48c0.2,5.6-3.5,4.4-6.3,5.2c-3.2,0.9-3.7-1-4.4-3.7
		c-2.4-9.3-6.4-17.8-13.1-24.9c-0.8-0.8-1.6-1.7-2.1-2.8c-6.7-12.7-16.3-22.1-30.9-28C731.5,443.4,770.8,442.3,810.5,454.4z"/>
	<path class="st3" d="M359.7,451.7c-5.7,0-11.3-0.1-17,0.1c-2.4,0.1-3.1-0.6-3.1-3c0.2-6.8,0.1-13.6,0-20.5c0-2.2,0.7-2.8,2.8-2.8
		c11.8,0.1,23.6,0.1,35.4,0c2.2,0,2.9,0.6,2.8,2.8c-0.1,6.8-0.2,13.6,0,20.5c0.1,2.5-0.7,3.1-3.1,3
		C371.6,451.6,365.6,451.7,359.7,451.7z"/>
	<path class="st3" d="M1206.9,451.7c-5.5,0-11-0.1-16.5,0.1c-2.7,0.1-3.8-0.5-3.7-3.5c0.2-6.6,0.1-13.3,0-20c0-2.1,0.6-2.9,2.8-2.8
		c11.8,0.1,23.6,0.1,35.4,0c2.7,0,2.9,1.1,2.9,3.2c-0.1,6.7-0.1,13.3,0,20c0.1,2.4-0.6,3.1-3,3.1
		C1218.9,451.6,1212.9,451.7,1206.9,451.7z"/>
	<path class="st1" d="M496.7,495.8c2.4,0.3,4.8,1.2,7.3,0.9c4.7-0.6,4.3,2.2,3.3,5.2c-0.6,1.7-1.7,3.2-2.5,4.8
		c-7.2,13.6-13.1,27.7-18.7,43.1c-1.4-5.7,1.4-11.7-4.3-15.1c-0.4-0.4-0.8-0.9-1-1.5c-0.9-7.4-0.4-14.8-0.3-22.3
		c0-3.3,1.8-5.6,5.2-5.4c6.4,0.5,10.2-1.7,10.3-8.6C495.9,496.5,496.4,496.1,496.7,495.8z"/>
	<path class="st5" d="M314.8,585.8c-0.2-1.6-0.6-2.3-2.8-2.3c-10.1,0.3-20.2,0.1-30.3,0.1c-9.9,0-9.9,0-10.3-9.7
		c2.3-0.2,2.3,1.4,2.2,2.9c-0.1,3.1,1.6,4,4.4,4c10.5-0.1,21-0.2,31.5,0.1c4.5,0.1,5.1-2.1,5.1-5.8c-0.1-24.3-0.1-48.6-0.1-72.9
		c0-17.5-0.1-35,0.1-52.4c0-4.7-1.1-7.5-6.4-7c-1.5,0.1-2.7-0.3-2.5-2.2c10.6,0.3,11-1.3,10.9,11.5c-0.1,36.6,0,73.1,0,109.7
		c0,1.9-0.8,4,0.8,5.7C316.6,573.6,315.7,579.7,314.8,585.8z"/>
	<path class="st6" d="M573.9,470.7c13.7,0,12.9-1.1,12.8,13c0,5.2,0,10.3,0,15.5c0,6.5-1.6,8.6-8.1,8.4c-4.9-0.2-6.3,1.4-6,6.2
		c0.4,7,0.1,14,0.1,21h-0.5h-0.5c-2.9-1.4-3-4.1-3.1-6.8c-0.1-5.7-0.1-11.3,0-17c0.1-5.5,1.7-7,7.2-7.2c7.8-0.2,7.8-0.2,7.8-7.7
		c0-5.5,0-11,0-16.5c0-5.1-0.5-5.5-5.7-5.8c-1.5-0.1-3,0.2-4.2-1.2C573.8,471.9,573.9,471.3,573.9,470.7z"/>
	<path class="st7" d="M656.7,584.7c3.1-1.9,6.4-0.8,9.6-0.6c23.2,0.9,45.5-1,62.4-19.8c3.1-3.4,4.5-7.7,6.5-11.7
		c1.2-2.5-0.3-3.7-2.8-3.8c-2.2-0.1-4.3,0-6.5-0.1c-1.3,0-2.6-0.3-1.3-2c2.8-0.6,5.6-0.4,8.5-0.3c5.5,0.1,6.9,2.7,4.8,7.8
		c-6.2,15.2-17.8,24-32.9,29c-14.2,4.7-28.9,4.1-43.5,3.7C659.7,586.8,657.8,586.6,656.7,584.7z"/>
	<path class="st8" d="M656.7,584.7c23.1,2.5,45.8,2.6,65.8-11.9c7.1-5.1,11.7-12.1,14.7-20.2c1.2-3.2,0.7-5-3.4-5.1
		c-3.1,0-6.3,1-9.2-0.8c0.4-0.7,0.7-1.3,1.1-2l0.2-0.1c2.3,1.4,4.8,0.5,7.2,0.6c6.3,0.2,7.9,2.3,5.8,8.3c-0.4,1.1-0.6,2.2-1.3,3.2
		c-1.1,1.1-1.7,2.5-2,4c-1.3,2.1-2.4,4.1-4,6l0,0c-1.6,2.4-3.6,4.4-6,6c-0.3,0.3-0.7,0.7-1,1c-1.4,1-2.6,2.1-4,3l0,0
		c-12.9,7.9-27.1,11-42,11.4c-7.7,0.3-15.5,0.4-23.1-1.5C656,586,656.4,585.4,656.7,584.7z"/>
	<path class="st9" d="M481.6,533.8c0.1,0.3,0.1,0.6,0.2,0.9c-3,0.3-4.2-1.2-4.1-4.1c0.1-7.5,0.1-14.9,0-22.4c0-4.1,2-5.6,5.8-5.5
		c9.9,0.2,9.5,1.3,9-10c-0.2-4,0.4-7.8,0.2-11.7c-0.1-3.2-0.9-5.5-4.8-5.3c-1.9,0.1-4.1-0.4-4.1-3.2c8.9,0.5,8.9,0.5,9.1-8.5
		c0-1.1-0.3-2.3,0.7-3.3c0,8,0.1,16,0,23.9c-0.1,3.6,0.4,6.9,2.1,10.1c-0.4,1.1,0,2.3,0,3.5c-0.1,5.8-1.6,7.5-7.3,7.6
		c-7.7,0.1-7.9,0.1-7.6,7.9C481,520.3,479.6,527.1,481.6,533.8z"/>
	<path class="st10" d="M954.9,586.8c-1.1-2.3-0.4-2.9,2.1-2.6c12.7,1.6,24.3-1.5,34.9-8.6c4.9-3.3,5.8-3,7.9,2.6
		c0.8,2.3,2.4,2.4,4.3,2.4c5.7,0,11.3,0,17,0c2.2,0,4.5-0.1,4.7,3c-7.3-0.1-14.7-0.1-22,0c-3.1,0-5.9-0.1-7.5-3.6
		c-1.4-3.1-3.5-1.4-5.3-0.2c-10.3,6.8-21.8,8.4-33.9,7.6C956.3,587.6,955.5,587.3,954.9,586.8z"/>
	<path class="st11" d="M573.8,472.5c10.5,0.6,11.1-1.9,10.9,11.5c-0.1,5.2-0.1,10.3,0,15.5c0.1,3.7-1.4,5.6-5.3,5.3
		c-1.8-0.1-3.7,0-5.5,0c-1.9,0-3.5,1.1-3.5,2.9c-0.2,9-2.2,18.2,1.4,27c-3.1,0.3-4.1-1.2-4.1-4.1c0.1-7.3,0-14.6,0-22
		c0-4,1.8-6,6.2-5.9c9.6,0.3,8.8,0.6,8.8-8.9c0-4.7-0.1-9.3,0-14c0.2-3.6-1.1-5.3-4.8-5.1C576.3,474.8,573.9,475.6,573.8,472.5z"/>
	<path class="st12" d="M821.2,533.1c-3.5-1.8-6.2-3.3-8.9-4.8c-1.3-0.7-1.6-2-1.6-3.4c0-2.9,0.7-5.7,2.2-8.1c1.6-2.7,3.9-6.3,7-5.6
		c2.5,0.6,1.2,4.6,1.3,7.2C821.3,523,821.2,527.7,821.2,533.1z"/>
	<path class="st13" d="M954.9,586.8c11.3,0.2,22.6,0,32.8-6c0.7-0.4,1.5-0.7,2.2-1.2c3.4-2.7,6.6-5.4,8.4,1.5
		c0.5,1.8,2.7,1.6,4.4,1.6c6,0,11.9,0,17.9,0c1.8,0,3.7-0.2,5.3,1c-0.1,0.3-0.1,0.7-0.2,1c-7.8,0-15.6-0.1-23.5,0
		c-2.6,0-5-0.2-6.3-2.9c-0.9-1.9-2.3-2.3-4-1.1c-11,7.7-23.4,8.6-36.2,8C955.4,588.1,955.1,587.5,954.9,586.8z"/>
	<path class="st14" d="M584.7,549.7c2.4,2.7,3.2,5.9,3.1,9.6c-0.2,6.3,0,12.6-0.1,18.9c0,6.4-1.1,7.4-7.3,8.9
		c-3.6,0.9-7.2,0.8-10.8,0.5c2.4-3.4,6.3-2.2,9.4-2.6c4.7-0.6,6.3-2.5,5.9-7c-0.7-8.7,1.1-17.5-1.1-26.2
		C583.6,551.2,584.3,550.4,584.7,549.7z"/>
	<path class="st15" d="M186.5,555.9c-1.9,6.7-0.5,13.5-0.8,20.2c-0.3,6.5-1,7.5-7.5,7.6c-4.5,0-9,0.1-13.5,0.1c0-2.7,2-2.1,3.5-2.2
		c3.3-0.1,6.6-0.1,10,0c3.8,0.1,5.4-1.6,5.4-5.4c-0.1-9.1,0-18.3,0-28.2C185.6,550.8,186.9,553,186.5,555.9z"/>
	<path class="st16" d="M481.6,533.8c-2.1-0.4-1.9-2-1.9-3.5c0-6.8,0-13.6,0-20.4c0-3.8,1.8-5.5,5.5-5.3c1.5,0.1,3-0.1,4.5,0
		c3.5,0.1,4.5-2,4.9-5c0.2-1.7-0.8-3.7,1.1-5c0.3,0.4,0.7,0.7,1,1.1c0,1.5,0.1,3-0.1,4.5c-0.4,4.2-2.3,6.6-7,6.5
		c-7.9,0-7.9,0.1-7.9,8.2C481.7,521.3,481.7,527.5,481.6,533.8z"/>
	<path class="st17" d="M475.9,590.7c0.2-2.7-1.4-3.2-3.7-3.4c-5.4-0.6-10.8-0.7-16-2.4c-5-1.6-9.5-3.7-12.7-8c1.4-0.3,2.6,0,3.7,0.9
		c7.5,5.2,16,6.9,24.9,7C477.2,584.8,477.5,585.4,475.9,590.7z"/>
	<path class="st18" d="M655.6,586.7c6-0.3,11.8,1.2,17.8,1.1c15.6-0.3,30.7-2.4,44.5-10.1c0.8-0.5,1.9-0.6,2.8-1
		c-7,6.1-15.7,8-24.4,10c-13.7,3.1-27.6,2.2-41.4,1.1C655.2,587.4,655.4,587.1,655.6,586.7z"/>
	<path class="st19" d="M233.8,587c-0.5-2.6-2.5-2.2-4.3-2.2c-4.5,0-8.9,0-13.4,0c-7.6,0-7.9-0.2-9.8-7.5c-0.3-1.1-0.5-2.2-0.7-3.4
		c2.7-0.6,3,1.3,3.3,3.2c0.6,4.3,3.4,5.7,7.4,5.5c4.8-0.2,9.7,0.1,14.5-0.1C234.5,582.4,235.4,583.7,233.8,587z"/>
	<path class="st20" d="M742.8,526.8c-0.2,14.8-0.2,14.8-14.9,14.9c-0.3,0-0.7,0-1,0c0.4-3.3,2.8-3.1,5.2-3.1
		c7.5-0.1,7.5-0.1,7.6-7.5C739.7,529,739.4,526.6,742.8,526.8z"/>
	<path class="st21" d="M1240.8,465.8c1.8,3.1,2.9,6.4,3,10h0.1c-1.3-1.5-2.7-3.1-4.8-2.8c-5.9,0.9-7-2.1-6-7
		C1235.6,464.1,1238.2,464.3,1240.8,465.8z"/>
	<path class="st22" d="M557.9,588.8c-2.7-1.7-6-1.2-9-2.1c-6.3-1.9-12.6-3.6-16.2-9.9c0.5,0,1.1-0.2,1.5,0c6.8,5.4,14.6,7.9,23.1,9
		C559.1,586.1,558.9,587.6,557.9,588.8z"/>
	<path class="st23" d="M654.6,539.3c4.3-2.4,8.7-1.2,13.1-1C663.6,541.5,659.1,540.8,654.6,539.3z"/>
	<path class="st24" d="M1240.8,465.8c-2.6,0-5.2,0.1-7.8,0.1C1235.3,462.8,1238.2,462.8,1240.8,465.8z"/>
	<path class="st25" d="M1157.1,470.6c1.5,1.8,1.9,4,2.5,6.8c-2.4-1.7-2.8-3.8-3.6-5.8C1156.3,471.2,1156.4,470.6,1157.1,470.6z"/>
	<path class="st26" d="M1157.1,470.6c-0.4,0.3-0.7,0.7-1.1,1c-0.7-1.6-1.3-3.3-2-4.9c0.4,0,0.8,0,1.2,0
		C1155.8,468,1156.4,469.3,1157.1,470.6z"/>
	<path d="M941.2,515.2c0.1-12.6,5.5-21.2,15.1-23.7s18.6,1.5,22.7,10.6c3.7,8.3,3.7,16.8,0.4,25.2c-3.5,8.8-11.5,13.4-20.6,12.2
		c-8.5-1.1-15.2-8-16.8-17.3C941.5,519.9,941.4,517.5,941.2,515.2z"/>
	<path d="M682.5,502.7c-14.9,0-29.8,0-44.7,0c-1.9,0-2.3-0.8-1.8-2.4c0.1-0.3,0.2-0.6,0.3-0.9c3-10.7,13.2-16.6,26.9-15.5
		C674.2,484.7,681,491.2,682.5,502.7z"/>
	<path class="st18" d="M737.7,556.7c2-10.4,2-10.4-8.7-10.9c-1.1-0.1-2.4,0.3-2.9-1.1c2,0,3.9,0.1,5.9,0.1c3.1,0.1,6.8-0.7,8.3,2.6
		C741.7,550.6,740.1,554,737.7,556.7z"/>
	<path class="st18" d="M725.7,572.7c1.6-2.4,3.6-4.4,6-6C730.9,569.9,728.9,571.9,725.7,572.7z"/>
	<path class="st18" d="M731.7,566.7c0.7-2.4,1.9-4.5,4-6C735.4,563.4,734.1,565.4,731.7,566.7z"/>
	<path class="st18" d="M720.7,576.7c0.9-1.6,2-2.8,4-3C723.9,575.4,722.8,576.6,720.7,576.7z"/>
	<path class="st27" d="M974.6,506.9c1,4.6,0.9,9.2,0.4,13.8c-0.9,8.7-7.6,13.2-17,11.9c-3.6-9.3,2.1-23.2,11.2-26.7
		C971.1,505.2,973.3,504,974.6,506.9z"/>
	<path class="st28" d="M974.6,506.9c-3.9-2-6.6,0.5-9.2,2.7c-7.2,6.1-7.6,14.5-7.5,23c-0.9,0-1.7-0.3-2-1.2
		c-3-9.5,4.2-23.9,13.6-27.1C972.2,503.5,974.2,503.6,974.6,506.9z"/>
	<path class="st29" d="M667.4,496.9c2.2-1.7,4.4-1.1,7.9-1C672,498.6,669.7,497.3,667.4,496.9z"/>
</g>
</svg>
