<?xml version="1.0" encoding="utf-8"?>
<!-- Generator: Adobe Illustrator 23.0.1, SVG Export Plug-In . SVG Version: 6.00 Build 0)  -->
<svg version="1.1" id="Warstwa_1" xmlns="http://www.w3.org/2000/svg" xmlns:xlink="http://www.w3.org/1999/xlink" x="0px" y="0px"
	 viewBox="0 0 512 512" style="enable-background:new 0 0 512 512;" xml:space="preserve">
<style type="text/css">
	.st0{fill:#4A76B8;}
</style>
<path class="st0" d="M402.24,352.3c-5.33-1.43-10.8,1.73-12.23,7.06c-1.43,5.32,1.73,10.81,7.06,12.24
	c5.33,1.43,10.81-1.74,12.24-7.06C410.74,359.2,407.57,353.73,402.24,352.3z"/>
<path class="st0" d="M114.93,371.6c5.34-1.43,8.49-6.91,7.06-12.24c-1.43-5.34-6.9-8.49-12.23-7.06c-5.34,1.43-8.5,6.9-7.07,12.24
	C104.11,369.86,109.6,373.03,114.93,371.6z"/>
<path class="st0" d="M500.55,339.77c7.53-24.79,11.21-48.09,11.21-70.99c0-66.43-27.09-129.2-76.27-176.74
	C387.56,45.7,323.28,19,256,19C118.17,19,0.23,130.52,0.23,268.78c0,22.9,3.68,46.21,11.22,71C2.3,347-2.14,359.26,1.01,371.09
	l25.87,96.5c4.25,15.91,20.61,25.51,36.71,21.21l30.61-8.21c7.02,10.2,19.91,15.35,32.46,12l38.61-10.35
	c15.96-4.28,25.47-20.75,21.19-36.7l-36.2-135.11c-4.28-15.96-20.76-25.47-36.71-21.19l-38.59,10.34
	c-4.07,1.09-7.71,2.97-10.82,5.43c-1.99-9.3-3.23-18.53-3.71-27.63c11.09-3.49,19.37-13.17,20.55-25.21
	C89.2,167.67,167.73,98.93,256,98.93s166.8,68.74,175.04,153.23c1.17,12.04,9.46,21.72,20.55,25.21
	c-0.48,9.11-1.72,18.33-3.71,27.63c-3.11-2.46-6.75-4.34-10.82-5.43l-38.59-10.34c-15.97-4.28-32.44,5.23-36.71,21.19l-36.2,135.11
	c-4.28,15.96,5.23,32.43,21.19,36.7l38.61,10.35c12.5,3.34,25.41-1.76,32.45-12l30.62,8.21c16.16,4.31,32.47-5.37,36.7-21.2
	l25.87-96.52C514.15,359.25,509.68,346.97,500.55,339.77z M80.11,318.87l38.6-10.34c5.32-1.43,10.81,1.74,12.24,7.06l36.2,135.11
	c1.43,5.32-1.74,10.8-7.06,12.23l-9.65,2.59l-18.09-67.56c-1.43-5.33-6.9-8.49-12.23-7.07c-5.33,1.43-8.5,6.91-7.07,12.24
	l18.1,67.56l-9.65,2.59c-5.32,1.42-10.81-1.75-12.24-7.07c0,0,0-0.01,0-0.01L73.04,331.1C71.62,325.79,74.79,320.3,80.11,318.87z
	 M87.36,461.73l-28.95,7.76c-5.32,1.42-10.81-1.71-12.24-7.07l-25.86-96.49c-1.34-5.05,1.45-10.32,6.43-12.05
	c0.23-0.08,0.47-0.15,0.64-0.2l28.54-7.65C58.84,353.31,53.52,336.64,87.36,461.73z M20.48,278.77h20
	c0.87,15.92,3.81,32.12,8.78,48.37l-19.2,5.15C24.52,313.65,21.36,295.99,20.48,278.77z M450.93,250.22
	c-9.45-96.8-97.3-171.27-194.93-171.27c-97.68,0-185.49,74.52-194.93,171.28c-0.47,4.8-4.77,8.56-9.8,8.56H20.46
	C26.04,138.64,131.62,38.98,256,38.98c124.38,0,229.96,99.66,235.54,219.8h-30.82C455.7,258.79,451.39,255.02,450.93,250.22z
	 M491.52,278.77c-0.88,17.23-4.04,34.88-9.57,53.52l-19.21-5.15c4.97-16.25,7.91-32.45,8.78-48.37H491.52z M402.75,466.21
	C402.75,466.21,402.75,466.21,402.75,466.21c-1.43,5.32-6.92,8.49-12.23,7.07l-9.66-2.59l18.1-67.56
	c1.43-5.33-1.73-10.81-7.07-12.24c-5.33-1.43-10.81,1.74-12.23,7.07l-18.1,67.56l-9.65-2.59c-5.32-1.43-8.49-6.91-7.07-12.23
	l36.2-135.11c1.2-4.46,5.24-7.41,9.66-7.41c0.85,0,1.72,0.11,2.59,0.34l38.59,10.34c5.32,1.43,8.5,6.91,7.07,12.23L402.75,466.21z
	 M491.69,365.92l-25.87,96.51c-1.43,5.35-6.93,8.48-12.23,7.07l-28.95-7.77c33.86-125.14,28.52-108.41,31.44-115.7
	c30.4,8.16,28.63,7.65,29.25,7.88C490.24,355.61,493.03,360.89,491.69,365.92z"/>
</svg>
