<?xml version="1.0" encoding="utf-8"?>
<!-- Generator: Adobe Illustrator 23.0.1, SVG Export Plug-In . SVG Version: 6.00 Build 0)  -->
<svg version="1.1" id="Warstwa_1" xmlns="http://www.w3.org/2000/svg" xmlns:xlink="http://www.w3.org/1999/xlink" x="0px" y="0px"
	 viewBox="0 0 36 24.01" style="enable-background:new 0 0 36 24.01;" xml:space="preserve">
<style type="text/css">
	.st0{fill-rule:evenodd;clip-rule:evenodd;fill:#F4F4F4;}
</style>
<g>
	<path class="st0" d="M3.25,13.98C5,9.42,9.65,1.11,14.55,2.04c1.31,0.25,2.08,0.95,2.94,2.91c0.93,2.13,1.6,4.13,3.27,3.9
		c2.62-0.36,3.52-5.18,5.77-5.42c1.96-0.21,4.69,5,5.04,9.18c0.3,3.57-3.99,4.93-5.04,1.37c-0.43-1.46-0.38-3.57-1.52-3.73
		c-2.39-0.33-2.8,4.52-5.87,4.46c-2.71-0.05-2.68-5.07-3.94-5.66c-1.27-0.59-3.07,5.5-3.87,8.15c-1.34,4.47-4.22,5.38-6.39,4.53
		C1.62,20.47,2.05,17.1,3.25,13.98z"/>
	<path class="st0" d="M32.84,15.87c0.44,0,0.79,0.36,0.79,0.79c0,0.44-0.36,0.79-0.79,0.79c-0.44,0-0.79-0.36-0.79-0.79
		C32.05,16.23,32.4,15.87,32.84,15.87z"/>
</g>
</svg>
