<?xml version="1.0" encoding="utf-8"?>
<!-- Generator: Adobe Illustrator 23.0.3, SVG Export Plug-In . SVG Version: 6.00 Build 0)  -->
<svg version="1.1" id="Warstwa_1" xmlns="http://www.w3.org/2000/svg" xmlns:xlink="http://www.w3.org/1999/xlink" x="0px" y="0px"
	 viewBox="0 0 396.2 75.6" style="enable-background:new 0 0 396.2 75.6;" xml:space="preserve">
<style type="text/css">
	.st0{fill-rule:evenodd;clip-rule:evenodd;fill:#4C76BA;}
	.st1{fill-rule:evenodd;clip-rule:evenodd;fill:#E2131A;}
	.st2{fill:#282828;}
</style>
<g>
	<path class="st0" d="M9.7,44.5c6-15.6,21.9-43.9,38.6-40.7c4.5,0.8,7.1,3.2,10,9.9C61.5,21,63.8,27.8,69.5,27
		c8.9-1.2,12-17.7,19.7-18.5c6.7-0.7,16,17,17.2,31.3c1,12.2-13.6,16.8-17.2,4.7c-1.5-5-1.3-12.2-5.2-12.7
		c-8.2-1.1-9.5,15.4-20,15.2c-9.2-0.2-9.2-17.3-13.5-19.3S40,46.5,37.3,55.5c-4.6,15.3-14.4,18.4-21.8,15.6
		C4.2,66.7,5.6,55.1,9.7,44.5z"/>
	<path class="st1" d="M110.7,51c1.5,0,2.7,1.2,2.7,2.7s-1.2,2.7-2.7,2.7s-2.7-1.2-2.7-2.7S109.2,51,110.7,51z"/>
</g>
<g>
	<path class="st2" d="M159.8,16.3c1.5,0.9,2.6,2.2,3.5,3.9c0.8,1.7,1.3,3.6,1.3,5.8v14.1c0,0.5-0.2,1-0.5,1.4
		c-0.4,0.4-0.8,0.5-1.4,0.5s-1-0.2-1.4-0.5c-0.4-0.4-0.5-0.8-0.5-1.4V26c0-2.4-0.6-4.2-1.8-5.6s-2.7-2-4.7-2c-2.1,0-3.7,0.7-5,2.1
		s-1.9,3.2-1.9,5.4V26v14.1c0,0.5-0.2,1-0.5,1.4c-0.4,0.4-0.8,0.5-1.4,0.5s-1-0.2-1.4-0.5c-0.4-0.4-0.5-0.8-0.5-1.4V26
		c0-2.4-0.6-4.2-1.8-5.6s-2.7-2-4.7-2s-3.7,0.6-5,2s-2,3.1-2,5.2v14.6c0,0.5-0.2,1-0.5,1.4c-0.4,0.4-0.8,0.5-1.4,0.5s-1-0.2-1.4-0.5
		c-0.4-0.4-0.5-0.8-0.5-1.4V17.1c0-0.5,0.2-1,0.5-1.4c0.4-0.4,0.8-0.5,1.4-0.5c0.6,0,1,0.2,1.4,0.5c0.4,0.4,0.5,0.8,0.5,1.4v1.1
		c0.9-1,2-1.8,3.3-2.5c1.3-0.5,2.6-0.8,4.1-0.8c1.8,0,3.5,0.4,4.8,1.3c1.3,0.9,2.5,2,3.5,3.5c0.9-1.5,2.2-2.6,3.7-3.5
		c1.5-0.8,3.2-1.3,5.1-1.3C156.6,14.8,158.4,15.3,159.8,16.3z"/>
	<path class="st2" d="M173.7,9.3c-0.5-0.5-0.7-1.2-0.7-1.9c0-0.8,0.3-1.5,0.8-1.9c0.5-0.5,1.2-0.7,1.9-0.7s1.4,0.3,1.9,0.7
		c0.5,0.5,0.8,1.1,0.8,1.9c0,0.7-0.3,1.4-0.8,1.9s-1.2,0.8-1.9,0.8S174.2,9.8,173.7,9.3z M174.3,41.5c-0.4-0.4-0.5-0.8-0.5-1.4v-23
		c0-0.5,0.2-1,0.5-1.4c0.4-0.4,0.8-0.5,1.4-0.5c0.5,0,1,0.2,1.4,0.5c0.4,0.4,0.5,0.8,0.5,1.4v23c0,0.5-0.2,1-0.5,1.4
		c-0.4,0.4-0.8,0.5-1.4,0.5S174.7,41.9,174.3,41.5z"/>
	<path class="st2" d="M200.3,38.8c0.4,0.4,0.5,0.8,0.5,1.4s-0.2,1-0.5,1.4c-0.4,0.4-0.9,0.5-1.5,0.5h-1c-1.7,0-3.3-0.5-4.6-1.3
		c-1.4-0.8-2.5-2-3.2-3.4c-0.7-1.5-1.2-3-1.2-4.8V19.5h-3.2c-0.5,0-0.9-0.2-1.3-0.5s-0.5-0.7-0.5-1.2s0.2-0.9,0.5-1.2
		s0.7-0.5,1.3-0.5h3.2V8.5c0-0.5,0.2-1,0.5-1.4s0.8-0.5,1.4-0.5s1,0.2,1.4,0.5s0.5,0.8,0.5,1.4v7.6h5.6c0.5,0,0.9,0.2,1.3,0.5
		c0.3,0.3,0.5,0.7,0.5,1.2s-0.2,0.8-0.5,1.2c-0.3,0.3-0.7,0.5-1.3,0.5h-5.6v13.1c0,1.6,0.5,3,1.5,4.1s2.3,1.6,3.8,1.6h1.4
		C199.5,38.2,200,38.4,200.3,38.8z"/>
	<path class="st2" d="M220,38.8c0.4,0.4,0.5,0.8,0.5,1.4s-0.2,1-0.5,1.4c-0.4,0.4-0.9,0.5-1.5,0.5h-1c-1.7,0-3.3-0.5-4.6-1.3
		c-1.4-0.8-2.5-2-3.2-3.4c-0.7-1.5-1.2-3-1.2-4.8V19.5h-3.2c-0.5,0-0.9-0.2-1.3-0.5s-0.5-0.7-0.5-1.2s0.2-0.9,0.5-1.2
		s0.7-0.5,1.3-0.5h3.2V8.5c0-0.5,0.2-1,0.5-1.4c0.4-0.4,0.8-0.5,1.4-0.5c0.5,0,1,0.2,1.4,0.5s0.5,0.8,0.5,1.4v7.6h5.6
		c0.5,0,0.9,0.2,1.3,0.5c0.3,0.3,0.5,0.7,0.5,1.2s-0.2,0.8-0.5,1.2c-0.3,0.3-0.7,0.5-1.3,0.5h-5.6v13.1c0,1.6,0.5,3,1.5,4.1
		s2.3,1.6,3.8,1.6h1.4C219.3,38.2,219.8,38.4,220,38.8z"/>
	<path class="st2" d="M244.6,16.6c1.9,1.1,3.3,2.7,4.4,4.7s1.5,4.3,1.5,6.8c0,0.5-0.2,0.9-0.5,1.3c-0.4,0.3-0.7,0.5-1.3,0.5H229
		c0.3,2.6,1.3,4.8,3.2,6.6c1.8,1.6,4.1,2.5,6.9,2.5c1.2,0,2.4-0.2,3.6-0.6c1.2-0.4,2.2-0.9,2.9-1.5c0.5-0.4,0.8-0.5,1.4-0.5
		c0.4,0,0.7,0.1,1.1,0.4c0.5,0.4,0.6,0.8,0.6,1.4c0,0.5-0.2,0.8-0.5,1.1c-1.1,0.9-2.5,1.6-4.1,2.3c-1.6,0.6-3.3,0.9-4.8,0.9
		c-2.6,0-5-0.5-7-1.7c-2.1-1.2-3.6-2.8-4.8-4.8c-1.2-2.1-1.7-4.5-1.7-7c0-2.6,0.5-5,1.6-7.1s2.6-3.7,4.6-4.8
		c1.9-1.2,4.2-1.7,6.6-1.7C240.5,14.9,242.7,15.5,244.6,16.6z M232,20.6c-1.6,1.5-2.6,3.6-3,6.1h18c-0.3-2.5-1.2-4.6-2.7-6.1
		s-3.6-2.3-6-2.3C235.6,18.3,233.6,19.1,232,20.6z"/>
	<path class="st2" d="M275.9,16.4c1.8,1,3.3,2.5,4.4,4.3c1,1.9,1.5,4.1,1.5,6.7v12.7c0,0.5-0.2,1-0.5,1.4c-0.4,0.4-0.8,0.5-1.4,0.5
		s-1-0.2-1.4-0.5c-0.4-0.4-0.5-0.8-0.5-1.4V27.4c0-2.9-0.8-5.1-2.5-6.6c-1.6-1.5-3.7-2.3-6.4-2.3c-1.6,0-3.1,0.3-4.4,0.9
		s-2.3,1.5-3.1,2.5c-0.7,1.1-1.1,2.3-1.1,3.6v14.6c0,0.5-0.2,1-0.5,1.4c-0.4,0.4-0.8,0.5-1.4,0.5s-1-0.2-1.4-0.5
		c-0.4-0.4-0.5-0.8-0.5-1.4v-23c0-0.5,0.2-1,0.5-1.4c0.4-0.4,0.8-0.5,1.4-0.5s1,0.2,1.4,0.5c0.4,0.4,0.5,0.8,0.5,1.4v1.6
		c1.1-1.2,2.4-2.2,3.9-2.8c1.5-0.7,3.2-1,5-1C271.9,14.8,274,15.4,275.9,16.4z"/>
	<path class="st2" d="M316.1,17v11.6c0,2.5-0.6,4.9-1.8,7c-1.2,2.1-2.8,3.7-4.9,4.9s-4.4,1.8-6.9,1.8s-4.9-0.6-6.9-1.8
		s-3.7-2.8-4.9-4.9s-1.8-4.5-1.8-7s0.5-4.9,1.7-6.9c1.2-2.1,2.7-3.7,4.7-4.9s4.3-1.8,6.7-1.8c2.1,0,4.1,0.5,5.8,1.4
		c1.7,0.9,3.2,2.2,4.4,3.7V5.5c0-0.5,0.2-1,0.5-1.4c0.4-0.4,0.8-0.5,1.4-0.5s1,0.2,1.4,0.5S316,5,316,5.5v11
		C316,16.6,316.1,16.8,316.1,17z M307.5,37.5c1.5-0.9,2.7-2.1,3.6-3.7c0.8-1.5,1.3-3.3,1.3-5.2c0-0.5,0-1-0.1-1.3
		c0-0.1-0.1-0.2-0.1-0.3c-0.4-2.5-1.4-4.6-3.2-6.3c-1.8-1.6-4-2.5-6.6-2.5c-1.9,0-3.6,0.5-5.1,1.4s-2.7,2.1-3.6,3.6
		c-0.8,1.5-1.3,3.3-1.3,5.2c0,1.9,0.5,3.6,1.3,5.2c0.8,1.5,2.1,2.8,3.6,3.7s3.2,1.4,5.1,1.4C304.3,38.9,306,38.4,307.5,37.5z"/>
	<path class="st2" d="M340.3,15.4c0.8,0.4,1.2,0.8,1.2,1.5c0,0.2,0,0.4-0.1,0.5c-0.1,0.5-0.4,0.7-0.6,0.9c-0.3,0.2-0.6,0.3-1.2,0.3
		c-0.3,0-0.8,0-1.5-0.1c-0.3,0-0.6-0.1-1.2-0.1c-2.5,0-4.5,0.6-6,2c-1.5,1.3-2.4,3-2.4,5.1v14.7c0,0.5-0.2,1-0.5,1.4
		c-0.4,0.4-0.8,0.5-1.4,0.5s-1-0.2-1.4-0.5c-0.4-0.4-0.5-0.8-0.5-1.4V17c0-0.5,0.2-1,0.5-1.4c0.4-0.4,0.8-0.5,1.4-0.5s1,0.2,1.4,0.5
		c0.4,0.4,0.5,0.8,0.5,1.4v2.2c0.9-1.4,2.2-2.5,3.6-3.2s3.1-1.1,4.7-1.1C338.4,14.8,339.5,15,340.3,15.4z"/>
	<path class="st2" d="M348.2,9.3c-0.5-0.5-0.7-1.2-0.7-1.9c0-0.8,0.3-1.5,0.8-1.9s1.2-0.7,1.9-0.7s1.4,0.3,1.9,0.7s0.8,1.1,0.8,1.9
		c0,0.7-0.3,1.4-0.8,1.9s-1.2,0.8-1.9,0.8C349.4,10,348.7,9.8,348.2,9.3z M348.8,41.5c-0.4-0.4-0.5-0.8-0.5-1.4v-23
		c0-0.5,0.2-1,0.5-1.4c0.4-0.4,0.8-0.5,1.4-0.5c0.5,0,1,0.2,1.4,0.5c0.4,0.4,0.5,0.8,0.5,1.4v23c0,0.5-0.2,1-0.5,1.4
		c-0.4,0.4-0.8,0.5-1.4,0.5C349.6,42,349.2,41.9,348.8,41.5z"/>
	<path class="st2" d="M380.7,16.4c1.8,1,3.3,2.5,4.4,4.3c1,1.9,1.5,4.1,1.5,6.7v12.7c0,0.5-0.2,1-0.5,1.4c-0.4,0.4-0.8,0.5-1.4,0.5
		s-1-0.2-1.4-0.5c-0.4-0.4-0.5-0.8-0.5-1.4V27.4c0-2.9-0.8-5.1-2.5-6.6c-1.6-1.5-3.7-2.3-6.4-2.3c-1.6,0-3.1,0.3-4.4,0.9
		s-2.3,1.5-3.1,2.5c-0.7,1.1-1.1,2.3-1.1,3.6v14.6c0,0.5-0.2,1-0.5,1.4c-0.4,0.4-0.8,0.5-1.4,0.5c-0.5,0-1-0.2-1.4-0.5
		c-0.4-0.4-0.5-0.8-0.5-1.4v-23c0-0.5,0.2-1,0.5-1.4c0.4-0.4,0.8-0.5,1.4-0.5c0.5,0,1,0.2,1.4,0.5c0.4,0.4,0.5,0.8,0.5,1.4v1.6
		c1.1-1.2,2.4-2.2,3.9-2.8s3.2-1,5-1C376.7,14.8,378.8,15.4,380.7,16.4z"/>
</g>
<g>
	<path class="st2" d="M132.9,62.7l-2.6-7.4c0,0,0-0.1-0.1-0.1H128c-0.1,0-0.1,0-0.1,0.1v7.3c0,0.2-0.1,0.2-0.2,0.2h-0.8
		c-0.2,0-0.2-0.1-0.2-0.2V46.8c0-0.2,0.1-0.2,0.2-0.2h3.6c1.1,0,2,0.4,2.6,1.2c0.7,0.8,1,1.9,1,3.2c0,1-0.2,1.9-0.7,2.7
		c-0.4,0.7-1.1,1.2-1.8,1.5c-0.1,0-0.1,0.1-0.1,0.1l2.6,7.4l0,0.1c0,0.1-0.1,0.2-0.2,0.2h-0.8C133.1,62.8,133,62.8,132.9,62.7z
		 M127.9,47.8v6.3c0,0.1,0,0.1,0.1,0.1h2.4c0.8,0,1.4-0.3,1.8-0.9s0.7-1.4,0.7-2.4c0-1-0.2-1.8-0.7-2.4s-1.1-0.9-1.8-0.9L127.9,47.8
		C127.9,47.7,127.9,47.7,127.9,47.8z"/>
	<path class="st2" d="M142.7,52c0.6,0.7,0.9,1.6,0.9,2.8v7.8c0,0.2-0.1,0.2-0.2,0.2h-0.8c-0.2,0-0.2-0.1-0.2-0.2v-0.8
		c0,0,0-0.1,0-0.1c0,0-0.1,0-0.1,0c-0.6,0.9-1.5,1.3-2.7,1.3c-0.8,0-1.5-0.2-2.1-0.7c-0.6-0.5-0.9-1.3-0.9-2.5
		c0-1.3,0.4-2.2,1.1-2.8s1.7-0.9,2.9-0.9h1.8c0.1,0,0.1,0,0.1-0.1v-1.1c0-0.9-0.2-1.6-0.6-2.1c-0.4-0.5-0.9-0.8-1.6-0.8
		c-0.5,0-1,0.2-1.4,0.5c-0.4,0.3-0.6,0.8-0.7,1.3c0,0.2-0.1,0.2-0.2,0.2l-0.8,0c-0.1,0-0.1,0-0.2-0.1c0,0-0.1-0.1,0-0.2
		c0.1-0.9,0.5-1.6,1.1-2.1c0.6-0.5,1.4-0.8,2.3-0.8C141.3,50.9,142.1,51.3,142.7,52z M141.7,61.3c0.5-0.4,0.8-1.1,0.8-1.9v-2.2
		c0-0.1,0-0.1-0.1-0.1h-1.8c-0.8,0-1.5,0.2-1.9,0.7c-0.5,0.4-0.7,1.1-0.7,2c0,0.8,0.2,1.3,0.6,1.7s0.9,0.6,1.5,0.6
		C140.5,61.9,141.1,61.7,141.7,61.3z"/>
	<path class="st2" d="M152.6,46.6h0.8c0.2,0,0.2,0.1,0.2,0.2v15.8c0,0.2-0.1,0.2-0.2,0.2h-0.8c-0.2,0-0.2-0.1-0.2-0.2V62
		c0,0,0,0,0-0.1c0,0-0.1,0-0.1,0c-0.3,0.4-0.6,0.6-1,0.8c-0.4,0.2-0.8,0.3-1.3,0.3c-1,0-1.7-0.3-2.3-1c-0.6-0.6-0.9-1.5-0.9-2.5
		v-5.1c0-1,0.3-1.9,0.9-2.5c0.6-0.6,1.4-1,2.3-1c0.5,0,0.9,0.1,1.3,0.3c0.4,0.2,0.7,0.5,1,0.8c0,0,0.1,0,0.1,0c0,0,0,0,0-0.1v-5.2
		C152.4,46.7,152.5,46.6,152.6,46.6z M151.8,61.3c0.4-0.4,0.6-1,0.6-1.8v-5c0-0.7-0.2-1.3-0.6-1.8c-0.4-0.5-0.9-0.7-1.6-0.7
		c-0.7,0-1.2,0.2-1.6,0.7c-0.4,0.5-0.6,1.1-0.6,1.8v5c0,0.7,0.2,1.3,0.6,1.8c0.4,0.5,1,0.7,1.6,0.7
		C150.9,61.9,151.4,61.7,151.8,61.3z"/>
	<path class="st2" d="M157.3,48.5c-0.2-0.2-0.3-0.5-0.3-0.8s0.1-0.6,0.3-0.8c0.2-0.2,0.5-0.3,0.8-0.3s0.6,0.1,0.8,0.3
		c0.2,0.2,0.3,0.5,0.3,0.8s-0.1,0.6-0.3,0.8c-0.2,0.2-0.5,0.3-0.8,0.3S157.5,48.7,157.3,48.5z M157.5,62.6V51.4
		c0-0.2,0.1-0.2,0.2-0.2h0.8c0.2,0,0.2,0.1,0.2,0.2v11.3c0,0.2-0.1,0.2-0.2,0.2h-0.8C157.6,62.8,157.5,62.8,157.5,62.6z"/>
	<path class="st2" d="M163.3,62.1c-0.6-0.6-0.9-1.5-0.9-2.5v-5.1c0-1,0.3-1.9,1-2.5c0.6-0.7,1.5-1,2.5-1c1.1,0,1.9,0.3,2.5,1
		c0.6,0.6,1,1.5,1,2.5v5.1c0,1-0.3,1.9-1,2.5c-0.6,0.6-1.5,1-2.5,1C164.8,63,164,62.7,163.3,62.1z M167.5,61.3
		c0.4-0.5,0.6-1,0.6-1.8v-5c0-0.7-0.2-1.3-0.6-1.8c-0.4-0.5-1-0.7-1.6-0.7c-0.7,0-1.2,0.2-1.6,0.7c-0.4,0.5-0.6,1.1-0.6,1.8v5
		c0,0.7,0.2,1.3,0.6,1.8c0.4,0.5,0.9,0.7,1.6,0.7C166.5,61.9,167.1,61.7,167.5,61.3z"/>
	<path class="st2" d="M183.5,46.6h0.8c0.2,0,0.2,0.1,0.2,0.2v15.8c0,0.2-0.1,0.2-0.2,0.2h-0.8c-0.2,0-0.2-0.1-0.2-0.2V62
		c0,0,0,0,0-0.1c0,0-0.1,0-0.1,0c-0.3,0.4-0.6,0.6-1,0.8c-0.4,0.2-0.8,0.3-1.3,0.3c-1,0-1.7-0.3-2.3-1c-0.6-0.6-0.9-1.5-0.9-2.5
		v-5.1c0-1,0.3-1.9,0.9-2.5c0.6-0.6,1.4-1,2.3-1c0.5,0,0.9,0.1,1.3,0.3c0.4,0.2,0.7,0.5,1,0.8c0,0,0.1,0,0.1,0c0,0,0,0,0-0.1v-5.2
		C183.3,46.7,183.4,46.6,183.5,46.6z M182.7,61.3c0.4-0.4,0.6-1,0.6-1.8v-5c0-0.7-0.2-1.3-0.6-1.8c-0.4-0.5-0.9-0.7-1.6-0.7
		c-0.7,0-1.2,0.2-1.6,0.7c-0.4,0.5-0.6,1.1-0.6,1.8v5c0,0.7,0.2,1.3,0.6,1.8c0.4,0.5,1,0.7,1.6,0.7
		C181.8,61.9,182.3,61.7,182.7,61.3z"/>
	<path class="st2" d="M194.6,57.4h-5.3c-0.1,0-0.1,0-0.1,0.1v2c0,0.7,0.2,1.3,0.6,1.8c0.4,0.5,0.9,0.7,1.6,0.7c0.5,0,1-0.2,1.4-0.5
		c0.4-0.3,0.6-0.8,0.8-1.3c0-0.1,0.1-0.2,0.3-0.2l0.7,0c0.1,0,0.1,0,0.2,0c0,0,0.1,0.1,0,0.1v0.1c-0.2,0.9-0.5,1.5-1.1,2
		c-0.6,0.5-1.3,0.7-2.3,0.7c-1,0-1.9-0.3-2.5-1c-0.6-0.6-1-1.5-1-2.5v-5.1c0-1,0.3-1.9,1-2.5c0.6-0.7,1.5-1,2.5-1c1,0,1.9,0.3,2.5,1
		c0.6,0.7,1,1.5,1,2.5v2.8C194.9,57.4,194.8,57.4,194.6,57.4z M189.8,52.7c-0.4,0.5-0.6,1.1-0.6,1.8v1.8c0,0.1,0,0.1,0.1,0.1h4.3
		c0.1,0,0.1,0,0.1-0.1v-1.8c0-0.7-0.2-1.3-0.6-1.8c-0.4-0.5-0.9-0.7-1.6-0.7C190.7,52,190.2,52.3,189.8,52.7z"/>
	<path class="st2" d="M202.7,51.3c0.1,0.1,0.1,0.2,0.1,0.3l-0.2,0.8c0,0.1-0.1,0.2-0.3,0.1c-0.2-0.1-0.6-0.1-0.9-0.1
		c-0.6,0-1.1,0.3-1.5,0.9c-0.4,0.6-0.6,1.3-0.6,2.2v7.1c0,0.2-0.1,0.2-0.2,0.2h-0.8c-0.2,0-0.2-0.1-0.2-0.2V51.4
		c0-0.2,0.1-0.2,0.2-0.2h0.8c0.2,0,0.2,0.1,0.2,0.2v1.4c0,0,0,0.1,0,0.1c0,0,0.1,0,0.1-0.1c0.2-0.6,0.5-1,0.9-1.3
		c0.4-0.3,0.8-0.5,1.4-0.5C202.1,51,202.4,51.1,202.7,51.3z"/>
	<path class="st2" d="M216.1,46.6h0.8c0.2,0,0.2,0.1,0.2,0.2v15.8c0,0.2-0.1,0.2-0.2,0.2h-0.8c-0.2,0-0.2-0.1-0.2-0.2V62
		c0,0,0,0,0-0.1c0,0-0.1,0-0.1,0c-0.3,0.4-0.6,0.6-1,0.8c-0.4,0.2-0.8,0.3-1.3,0.3c-1,0-1.7-0.3-2.3-1c-0.6-0.6-0.9-1.5-0.9-2.5
		v-5.1c0-1,0.3-1.9,0.9-2.5c0.6-0.6,1.4-1,2.3-1c0.5,0,0.9,0.1,1.3,0.3c0.4,0.2,0.7,0.5,1,0.8c0,0,0.1,0,0.1,0c0,0,0,0,0-0.1v-5.2
		C215.9,46.7,215.9,46.6,216.1,46.6z M215.3,61.3c0.4-0.4,0.6-1,0.6-1.8v-5c0-0.7-0.2-1.3-0.6-1.8c-0.4-0.5-0.9-0.7-1.6-0.7
		c-0.7,0-1.2,0.2-1.6,0.7c-0.4,0.5-0.6,1.1-0.6,1.8v5c0,0.7,0.2,1.3,0.6,1.8c0.4,0.5,1,0.7,1.6,0.7
		C214.3,61.9,214.9,61.7,215.3,61.3z"/>
	<path class="st2" d="M227.2,57.4h-5.3c-0.1,0-0.1,0-0.1,0.1v2c0,0.7,0.2,1.3,0.6,1.8c0.4,0.5,0.9,0.7,1.6,0.7c0.5,0,1-0.2,1.4-0.5
		c0.4-0.3,0.6-0.8,0.8-1.3c0-0.1,0.1-0.2,0.3-0.2l0.7,0c0.1,0,0.1,0,0.2,0c0,0,0.1,0.1,0,0.1v0.1c-0.2,0.9-0.5,1.5-1.1,2
		c-0.6,0.5-1.3,0.7-2.3,0.7c-1,0-1.9-0.3-2.5-1c-0.6-0.6-1-1.5-1-2.5v-5.1c0-1,0.3-1.9,1-2.5c0.6-0.7,1.5-1,2.5-1c1,0,1.9,0.3,2.5,1
		c0.6,0.7,1,1.5,1,2.5v2.8C227.4,57.4,227.3,57.4,227.2,57.4z M222.4,52.7c-0.4,0.5-0.6,1.1-0.6,1.8v1.8c0,0.1,0,0.1,0.1,0.1h4.3
		c0.1,0,0.1,0,0.1-0.1v-1.8c0-0.7-0.2-1.3-0.6-1.8c-0.4-0.5-0.9-0.7-1.6-0.7C223.3,52,222.8,52.3,222.4,52.7z"/>
	<path class="st2" d="M236.3,51.1h0.8c0.2,0,0.2,0.1,0.2,0.2v11.3c0,0.2-0.1,0.2-0.2,0.2h-0.8c-0.2,0-0.2-0.1-0.2-0.2v-0.8
		c0,0,0-0.1,0-0.1c0,0,0,0-0.1,0c-0.5,0.9-1.3,1.3-2.4,1.3c-0.9,0-1.7-0.3-2.2-0.8c-0.5-0.6-0.8-1.4-0.8-2.5v-8.3
		c0-0.2,0.1-0.2,0.2-0.2h0.8c0.2,0,0.2,0.1,0.2,0.2v8c0,0.9,0.2,1.5,0.5,1.9c0.4,0.4,0.9,0.7,1.5,0.7c0.7,0,1.2-0.2,1.6-0.7
		c0.4-0.5,0.6-1.2,0.6-2v-7.8C236,51.2,236.1,51.1,236.3,51.1z"/>
	<path class="st2" d="M244.5,52.1h-1.9c-0.1,0-0.1,0-0.1,0.1v7.5c0,0.8,0.1,1.3,0.4,1.6c0.3,0.3,0.7,0.5,1.3,0.5h0.2
		c0.2,0,0.2,0.1,0.2,0.2v0.6c0,0.2-0.1,0.2-0.2,0.2H244c-0.9,0-1.5-0.2-2-0.6c-0.4-0.4-0.7-1.2-0.7-2.3v-7.8c0-0.1,0-0.1-0.1-0.1h-1
		c-0.2,0-0.2-0.1-0.2-0.2v-0.5c0-0.2,0.1-0.2,0.2-0.2h1c0.1,0,0.1,0,0.1-0.1v-2.6c0-0.2,0.1-0.2,0.2-0.2h0.7c0.2,0,0.2,0.1,0.2,0.2
		V51c0,0.1,0,0.1,0.1,0.1h1.9c0.2,0,0.2,0.1,0.2,0.2v0.5C244.8,52,244.7,52.1,244.5,52.1z"/>
	<path class="st2" d="M248.1,62.1c-0.6-0.5-0.9-1.3-0.9-2.1v-0.1c0-0.2,0.1-0.2,0.2-0.2h0.7c0.2,0,0.2,0.1,0.2,0.2V60
		c0,0.6,0.2,1,0.6,1.4s0.9,0.6,1.6,0.6c0.6,0,1.1-0.2,1.5-0.6c0.4-0.4,0.6-0.9,0.6-1.5c0-0.4-0.1-0.8-0.3-1.1
		c-0.2-0.3-0.5-0.5-0.8-0.7c-0.3-0.2-0.8-0.4-1.3-0.6c-0.6-0.2-1.1-0.5-1.5-0.7c-0.4-0.2-0.7-0.6-1-1c-0.3-0.4-0.4-1-0.4-1.6
		c0-0.9,0.3-1.7,0.9-2.3c0.6-0.6,1.4-0.8,2.3-0.8c1,0,1.8,0.3,2.4,0.9c0.6,0.6,0.9,1.3,0.9,2.2v0.1c0,0.2-0.1,0.2-0.2,0.2h-0.7
		c-0.2,0-0.2-0.1-0.2-0.2v-0.1c0-0.6-0.2-1.1-0.6-1.4c-0.4-0.4-0.9-0.6-1.5-0.6c-0.6,0-1.1,0.2-1.5,0.6c-0.4,0.4-0.6,0.9-0.6,1.5
		c0,0.4,0.1,0.8,0.3,1c0.2,0.3,0.5,0.5,0.8,0.7c0.3,0.2,0.7,0.4,1.3,0.6c0.6,0.3,1.2,0.5,1.6,0.8c0.4,0.2,0.8,0.6,1.1,1
		c0.3,0.4,0.4,1,0.4,1.7c0,0.9-0.3,1.7-0.9,2.2c-0.6,0.6-1.4,0.8-2.4,0.8C249.5,63,248.7,62.7,248.1,62.1z"/>
	<path class="st2" d="M257.3,62.1c-0.6-0.6-0.9-1.5-0.9-2.5v-5.1c0-1,0.3-1.9,1-2.5c0.6-0.7,1.5-1,2.5-1c0.7,0,1.3,0.1,1.8,0.4
		c0.5,0.3,0.9,0.7,1.2,1.1c0.3,0.5,0.4,1,0.4,1.5v0.1c0,0.2-0.1,0.2-0.2,0.2l-0.8,0c-0.2,0-0.2-0.1-0.2-0.2v-0.1
		c0-0.6-0.2-1-0.6-1.5c-0.4-0.4-1-0.6-1.6-0.6c-0.7,0-1.2,0.2-1.6,0.7c-0.4,0.5-0.6,1.1-0.6,1.8v5c0,0.7,0.2,1.3,0.6,1.8
		c0.4,0.5,0.9,0.7,1.6,0.7c0.7,0,1.2-0.2,1.6-0.6c0.4-0.4,0.6-0.9,0.6-1.5v-0.1c0-0.2,0.1-0.2,0.2-0.2h0.8c0.2,0,0.2,0.1,0.2,0.2
		v0.2c0,0.6-0.1,1.1-0.4,1.5c-0.3,0.5-0.7,0.8-1.2,1.1c-0.5,0.3-1.1,0.4-1.8,0.4C258.8,63,258,62.7,257.3,62.1z"/>
	<path class="st2" d="M272.4,51.9c0.5,0.6,0.8,1.5,0.8,2.7v8c0,0.2-0.1,0.2-0.2,0.2h-0.8c-0.2,0-0.2-0.1-0.2-0.2v-7.9
		c0-0.8-0.2-1.5-0.6-2c-0.4-0.5-0.9-0.7-1.6-0.7c-0.7,0-1.2,0.2-1.6,0.7c-0.4,0.5-0.6,1.2-0.6,2v7.8c0,0.2-0.1,0.2-0.2,0.2h-0.8
		c-0.2,0-0.2-0.1-0.2-0.2V46.8c0-0.2,0.1-0.2,0.2-0.2h0.8c0.2,0,0.2,0.1,0.2,0.2v5.4c0,0,0,0.1,0,0.1c0,0,0.1,0,0.1,0
		c0.5-0.9,1.3-1.3,2.5-1.3C271.2,51,271.9,51.3,272.4,51.9z"/>
	<path class="st2" d="M283.1,57.4h-5.3c-0.1,0-0.1,0-0.1,0.1v2c0,0.7,0.2,1.3,0.6,1.8c0.4,0.5,0.9,0.7,1.6,0.7c0.5,0,1-0.2,1.4-0.5
		c0.4-0.3,0.6-0.8,0.8-1.3c0-0.1,0.1-0.2,0.3-0.2l0.7,0c0.1,0,0.1,0,0.2,0c0,0,0.1,0.1,0,0.1v0.1c-0.2,0.9-0.5,1.5-1.1,2
		c-0.6,0.5-1.3,0.7-2.3,0.7c-1,0-1.9-0.3-2.5-1c-0.6-0.6-1-1.5-1-2.5v-5.1c0-1,0.3-1.9,1-2.5c0.6-0.7,1.5-1,2.5-1c1,0,1.9,0.3,2.5,1
		c0.6,0.7,1,1.5,1,2.5v2.8C283.3,57.4,283.3,57.4,283.1,57.4z M278.3,52.7c-0.4,0.5-0.6,1.1-0.6,1.8v1.8c0,0.1,0,0.1,0.1,0.1h4.3
		c0.1,0,0.1,0,0.1-0.1v-1.8c0-0.7-0.2-1.3-0.6-1.8c-0.4-0.5-0.9-0.7-1.6-0.7C279.2,52,278.7,52.3,278.3,52.7z"/>
	<path class="st2" d="M292.6,51.9c0.5,0.6,0.8,1.5,0.8,2.7v8c0,0.2-0.1,0.2-0.2,0.2h-0.8c-0.2,0-0.2-0.1-0.2-0.2v-7.9
		c0-0.8-0.2-1.5-0.6-2c-0.4-0.5-0.9-0.7-1.6-0.7c-0.7,0-1.2,0.2-1.6,0.7c-0.4,0.5-0.6,1.2-0.6,2v7.8c0,0.2-0.1,0.2-0.2,0.2h-0.8
		c-0.2,0-0.2-0.1-0.2-0.2V51.4c0-0.2,0.1-0.2,0.2-0.2h0.8c0.2,0,0.2,0.1,0.2,0.2v0.9c0,0,0,0.1,0,0.1c0,0,0.1,0,0.1,0
		c0.5-0.9,1.3-1.3,2.5-1.3C291.3,51,292.1,51.3,292.6,51.9z"/>
	<path class="st2" d="M309.7,46.6h0.8c0.2,0,0.2,0.1,0.2,0.2v15.8c0,0.2-0.1,0.2-0.2,0.2h-0.8c-0.2,0-0.2-0.1-0.2-0.2V49.4
		c0,0,0-0.1,0-0.1s-0.1,0-0.1,0l-2.6,5.7c0,0.1-0.1,0.2-0.2,0.2c-0.1,0-0.2-0.1-0.3-0.2l-2.6-5.6c0,0-0.1,0-0.1,0s0,0,0,0.1v13.1
		c0,0.2-0.1,0.2-0.2,0.2h-0.8c-0.2,0-0.2-0.1-0.2-0.2V46.8c0-0.2,0.1-0.2,0.2-0.2h0.8c0.1,0,0.2,0.1,0.3,0.2l2.8,6.1c0,0,0,0,0.1,0
		s0.1,0,0.1,0l2.8-6.1C309.5,46.6,309.6,46.6,309.7,46.6z"/>
	<path class="st2" d="M314.6,48.5c-0.2-0.2-0.3-0.5-0.3-0.8s0.1-0.6,0.3-0.8s0.5-0.3,0.8-0.3s0.6,0.1,0.8,0.3s0.3,0.5,0.3,0.8
		s-0.1,0.6-0.3,0.8s-0.5,0.3-0.8,0.3S314.8,48.7,314.6,48.5z M314.9,62.6V51.4c0-0.2,0.1-0.2,0.2-0.2h0.8c0.2,0,0.2,0.1,0.2,0.2
		v11.3c0,0.2-0.1,0.2-0.2,0.2h-0.8C314.9,62.8,314.9,62.8,314.9,62.6z"/>
	<path class="st2" d="M326,51.9c0.5,0.6,0.8,1.5,0.8,2.7v8c0,0.2-0.1,0.2-0.2,0.2h-0.8c-0.2,0-0.2-0.1-0.2-0.2v-7.9
		c0-0.8-0.2-1.5-0.6-2c-0.4-0.5-0.9-0.7-1.6-0.7c-0.7,0-1.2,0.2-1.6,0.7c-0.4,0.5-0.6,1.2-0.6,2v7.8c0,0.2-0.1,0.2-0.2,0.2h-0.8
		c-0.2,0-0.2-0.1-0.2-0.2V51.4c0-0.2,0.1-0.2,0.2-0.2h0.8c0.2,0,0.2,0.1,0.2,0.2v0.9c0,0,0,0.1,0,0.1c0,0,0.1,0,0.1,0
		c0.5-0.9,1.3-1.3,2.5-1.3C324.8,51,325.5,51.3,326,51.9z"/>
	<path class="st2" d="M335.9,46.6h0.8c0.2,0,0.2,0.1,0.2,0.2v15.8c0,0.2-0.1,0.2-0.2,0.2h-0.8c-0.2,0-0.2-0.1-0.2-0.2V62
		c0,0,0,0,0-0.1c0,0-0.1,0-0.1,0c-0.3,0.4-0.6,0.6-1,0.8c-0.4,0.2-0.8,0.3-1.3,0.3c-1,0-1.7-0.3-2.3-1c-0.6-0.6-0.9-1.5-0.9-2.5
		v-5.1c0-1,0.3-1.9,0.9-2.5c0.6-0.6,1.4-1,2.3-1c0.5,0,0.9,0.1,1.3,0.3c0.4,0.2,0.7,0.5,1,0.8c0,0,0.1,0,0.1,0c0,0,0,0,0-0.1v-5.2
		C335.6,46.7,335.7,46.6,335.9,46.6z M335,61.3c0.4-0.4,0.6-1,0.6-1.8v-5c0-0.7-0.2-1.3-0.6-1.8c-0.4-0.5-0.9-0.7-1.6-0.7
		c-0.7,0-1.2,0.2-1.6,0.7c-0.4,0.5-0.6,1.1-0.6,1.8v5c0,0.7,0.2,1.3,0.6,1.8c0.4,0.5,1,0.7,1.6,0.7C334.1,61.9,334.6,61.7,335,61.3z
		"/>
	<path class="st2" d="M347,57.4h-5.3c-0.1,0-0.1,0-0.1,0.1v2c0,0.7,0.2,1.3,0.6,1.8c0.4,0.5,0.9,0.7,1.6,0.7c0.5,0,1-0.2,1.4-0.5
		c0.4-0.3,0.6-0.8,0.8-1.3c0-0.1,0.1-0.2,0.3-0.2l0.7,0c0.1,0,0.1,0,0.2,0c0,0,0.1,0.1,0,0.1v0.1c-0.2,0.9-0.5,1.5-1.1,2
		c-0.6,0.5-1.3,0.7-2.3,0.7c-1,0-1.9-0.3-2.5-1c-0.6-0.6-1-1.5-1-2.5v-5.1c0-1,0.3-1.9,1-2.5c0.6-0.7,1.5-1,2.5-1c1,0,1.9,0.3,2.5,1
		c0.6,0.7,1,1.5,1,2.5v2.8C347.2,57.4,347.1,57.4,347,57.4z M342.1,52.7c-0.4,0.5-0.6,1.1-0.6,1.8v1.8c0,0.1,0,0.1,0.1,0.1h4.3
		c0.1,0,0.1,0,0.1-0.1v-1.8c0-0.7-0.2-1.3-0.6-1.8c-0.4-0.5-0.9-0.7-1.6-0.7C343.1,52,342.6,52.3,342.1,52.7z"/>
	<path class="st2" d="M355.1,51.3c0.1,0.1,0.1,0.2,0.1,0.3l-0.2,0.8c0,0.1-0.1,0.2-0.3,0.1c-0.2-0.1-0.6-0.1-0.9-0.1
		c-0.6,0-1.1,0.3-1.5,0.9c-0.4,0.6-0.6,1.3-0.6,2.2v7.1c0,0.2-0.1,0.2-0.2,0.2h-0.8c-0.2,0-0.2-0.1-0.2-0.2V51.4
		c0-0.2,0.1-0.2,0.2-0.2h0.8c0.2,0,0.2,0.1,0.2,0.2v1.4c0,0,0,0.1,0,0.1s0.1,0,0.1-0.1c0.2-0.6,0.5-1,0.9-1.3
		c0.4-0.3,0.8-0.5,1.4-0.5C354.4,51,354.8,51.1,355.1,51.3z"/>
	<path class="st2" d="M363.6,51.9c0.5,0.6,0.8,1.5,0.8,2.7v8c0,0.2-0.1,0.2-0.2,0.2h-0.8c-0.2,0-0.2-0.1-0.2-0.2v-7.9
		c0-0.8-0.2-1.5-0.6-2c-0.4-0.5-0.9-0.7-1.6-0.7c-0.7,0-1.2,0.2-1.6,0.7c-0.4,0.5-0.6,1.2-0.6,2v7.8c0,0.2-0.1,0.2-0.2,0.2h-0.8
		c-0.2,0-0.2-0.1-0.2-0.2V46.8c0-0.2,0.1-0.2,0.2-0.2h0.8c0.2,0,0.2,0.1,0.2,0.2v5.4c0,0,0,0.1,0,0.1c0,0,0.1,0,0.1,0
		c0.5-0.9,1.3-1.3,2.5-1.3C362.4,51,363.1,51.3,363.6,51.9z"/>
	<path class="st2" d="M374.3,57.4H369c-0.1,0-0.1,0-0.1,0.1v2c0,0.7,0.2,1.3,0.6,1.8c0.4,0.5,0.9,0.7,1.6,0.7c0.5,0,1-0.2,1.4-0.5
		c0.4-0.3,0.6-0.8,0.8-1.3c0-0.1,0.1-0.2,0.3-0.2l0.7,0c0.1,0,0.1,0,0.2,0c0,0,0.1,0.1,0,0.1v0.1c-0.2,0.9-0.5,1.5-1.1,2
		c-0.6,0.5-1.3,0.7-2.3,0.7c-1,0-1.9-0.3-2.5-1c-0.6-0.6-1-1.5-1-2.5v-5.1c0-1,0.3-1.9,1-2.5c0.6-0.7,1.5-1,2.5-1c1,0,1.9,0.3,2.5,1
		c0.6,0.7,1,1.5,1,2.5v2.8C374.6,57.4,374.5,57.4,374.3,57.4z M369.5,52.7c-0.4,0.5-0.6,1.1-0.6,1.8v1.8c0,0.1,0,0.1,0.1,0.1h4.3
		c0.1,0,0.1,0,0.1-0.1v-1.8c0-0.7-0.2-1.3-0.6-1.8c-0.4-0.5-0.9-0.7-1.6-0.7C370.4,52,369.9,52.3,369.5,52.7z"/>
	<path class="st2" d="M377.8,48.5c-0.2-0.2-0.3-0.5-0.3-0.8s0.1-0.6,0.3-0.8s0.5-0.3,0.8-0.3s0.6,0.1,0.8,0.3s0.3,0.5,0.3,0.8
		s-0.1,0.6-0.3,0.8s-0.5,0.3-0.8,0.3S378,48.7,377.8,48.5z M378,62.6V51.4c0-0.2,0.1-0.2,0.2-0.2h0.8c0.2,0,0.2,0.1,0.2,0.2v11.3
		c0,0.2-0.1,0.2-0.2,0.2h-0.8C378.1,62.8,378,62.8,378,62.6z"/>
	<path class="st2" d="M386.7,52.1h-1.9c-0.1,0-0.1,0-0.1,0.1v7.5c0,0.8,0.1,1.3,0.4,1.6c0.3,0.3,0.7,0.5,1.3,0.5h0.2
		c0.2,0,0.2,0.1,0.2,0.2v0.6c0,0.2-0.1,0.2-0.2,0.2h-0.5c-0.9,0-1.5-0.2-2-0.6c-0.4-0.4-0.7-1.2-0.7-2.3v-7.8c0-0.1,0-0.1-0.1-0.1
		h-1c-0.2,0-0.2-0.1-0.2-0.2v-0.5c0-0.2,0.1-0.2,0.2-0.2h1c0.1,0,0.1,0,0.1-0.1v-2.6c0-0.2,0.1-0.2,0.2-0.2h0.7
		c0.2,0,0.2,0.1,0.2,0.2V51c0,0.1,0,0.1,0.1,0.1h1.9c0.2,0,0.2,0.1,0.2,0.2v0.5C387,52,386.9,52.1,386.7,52.1z"/>
</g>
</svg>
